<?xml version="1.0" encoding="iso-8859-1"?>
<!-- Generator: Adobe Illustrator 16.0.0, SVG Export Plug-In . SVG Version: 6.00 Build 0)  -->
<!DOCTYPE svg PUBLIC "-//W3C//DTD SVG 1.1 Basic//EN" "http://www.w3.org/Graphics/SVG/1.1/DTD/svg11-basic.dtd">
<svg version="1.1" baseProfile="basic" id="Layer_1"
	 xmlns="http://www.w3.org/2000/svg" xmlns:xlink="http://www.w3.org/1999/xlink" x="0px" y="0px" width="706.465px"
	 height="250.487px" viewBox="0 0 706.465 250.487" xml:space="preserve">
<g>
	<linearGradient id="SVGID_1_" gradientUnits="userSpaceOnUse" x1="8.1782" y1="84.6924" x2="184.4717" y2="84.6924">
		<stop  offset="0" style="stop-color:#883C1D"/>
		<stop  offset="0.0912" style="stop-color:#C18635"/>
		<stop  offset="0.1844" style="stop-color:#F5B92E"/>
		<stop  offset="0.2942" style="stop-color:#C58F2C"/>
		<stop  offset="0.4041" style="stop-color:#AC6F29"/>
		<stop  offset="0.473" style="stop-color:#E19F26"/>
		<stop  offset="0.5531" style="stop-color:#DE9626"/>
		<stop  offset="0.6183" style="stop-color:#FEEB4E"/>
		<stop  offset="0.7076" style="stop-color:#EBA22F"/>
		<stop  offset="0.7654" style="stop-color:#B56F29"/>
		<stop  offset="0.8212" style="stop-color:#FEE645"/>
		<stop  offset="0.9274" style="stop-color:#BB7329"/>
		<stop  offset="1" style="stop-color:#883C1D"/>
	</linearGradient>
	<path style="fill:url(#SVGID_1_);" d="M11.305,77.46c-4.17,3.39-4.169,9.757,0.001,13.146l3.817,3.103l5.901,4.787l5.167,4.205
		l10.891,8.839l6.763,5.497l4.483,3.622h0.025l11.372,9.27l22.466,18.211l5.192,4.229l11.119,9.017l11.22-9.118l8.485-6.889
		l8.207-6.661l-11.094-9.017l-8.207,6.661l-8.485,6.889l-5.217-4.229l-22.441-18.236l-11.397-9.245l-4.483-3.647l-6.763-5.496
		l-10.891-8.839l-5.167-4.179l-5.901-4.812l48.503-39.385L86.6,35.658l10.258-8.333l5.927,4.813l5.142,4.205h0.025l10.866,8.814
		l45.084,36.625l20.49,16.615c0.505-9.893-1.256-19.023-8.561-26.291L96.857,8L14.465,74.891L11.305,77.46z"/>
	<linearGradient id="SVGID_2_" gradientUnits="userSpaceOnUse" x1="45.9229" y1="89.5938" x2="185.0176" y2="89.5938">
		<stop  offset="0" style="stop-color:#883C1D"/>
		<stop  offset="0.0912" style="stop-color:#C18635"/>
		<stop  offset="0.1844" style="stop-color:#F5B92E"/>
		<stop  offset="0.2942" style="stop-color:#C58F2C"/>
		<stop  offset="0.4041" style="stop-color:#AC6F29"/>
		<stop  offset="0.473" style="stop-color:#E19F26"/>
		<stop  offset="0.5531" style="stop-color:#DE9626"/>
		<stop  offset="0.6183" style="stop-color:#FEEB4E"/>
		<stop  offset="0.7076" style="stop-color:#EBA22F"/>
		<stop  offset="0.7654" style="stop-color:#B56F29"/>
		<stop  offset="0.8212" style="stop-color:#FEE645"/>
		<stop  offset="0.9274" style="stop-color:#BB7329"/>
		<stop  offset="1" style="stop-color:#883C1D"/>
	</linearGradient>
	<polygon style="fill:url(#SVGID_2_);" points="54.129,80.032 63.095,72.738 74.442,63.519 85.967,54.173 97.693,44.649 
		108.584,53.489 115.347,58.985 119.83,62.632 131.228,71.877 153.668,90.088 158.886,94.317 169.979,103.334 174.133,106.729 
		180.364,111.769 185.018,115.554 185.018,134.462 184.923,134.538 181.022,131.347 174.336,125.927 168.612,121.292 
		162.406,116.251 158.252,112.857 147.134,103.841 141.941,99.636 119.501,81.4 108.103,72.155 103.62,68.508 96.832,63.012 
		85.333,72.358 73.986,81.578 65.021,88.872 56.814,95.508 45.923,86.694 	"/>
	<path style="fill:#B3B4B4;" d="M9.339,145.526c-4.215,7.349-2.484,16.669,4.088,22.015l0,0l27.633,22.44l11.119,9.017l10.359,8.409
		l12.385,10.056l11.068,8.991l11.246,9.144l12.284-9.979l10.283-8.358l11.93-9.7l11.828-9.6l11.22-9.118l8.51-6.89l8.181-6.661
		l8.966-7.269l1.531-1.244c5.06-4.11,5.056-11.835-0.008-15.941l-1.421-1.152l-7.117-5.8l-3.926-3.166l-6.687-5.421l-5.724-4.66
		l-6.205-5.04l-4.154-3.369l-11.119-9.017l-5.192-4.23l-22.44-18.236l-11.397-9.245l-11.347,9.22l-8.966,7.269l-8.206,6.661
		l11.397,9.27l8.207-6.661l8.966-7.294l22.441,18.236l5.218,4.204l11.093,9.017l4.154,3.395l6.206,5.04l5.75,4.635l6.661,5.42
		l3.926,3.191l7.117,5.801l-8.941,7.269l-8.206,6.661l-8.485,6.89l-11.246,9.118l-11.803,9.6l-11.955,9.7l-10.283,8.333
		l-11.068-8.966l-12.385-10.081l-10.359-8.408l-11.119-9.018l-27.633-22.44l-11.397-9.27l-4.483-3.622L9.339,145.526z"/>
	<linearGradient id="SVGID_3_" gradientUnits="userSpaceOnUse" x1="101.2778" y1="76.2871" x2="40.4129" y2="233.9494">
		<stop  offset="0" style="stop-color:#C1BEBF"/>
		<stop  offset="0.1697" style="stop-color:#F7F6F7"/>
		<stop  offset="0.231" style="stop-color:#F2F0F1"/>
		<stop  offset="0.2999" style="stop-color:#E5E2E3"/>
		<stop  offset="0.3723" style="stop-color:#D0CDCE"/>
		<stop  offset="0.4182" style="stop-color:#C0BDBE"/>
		<stop  offset="0.5515" style="stop-color:#C0BDBE"/>
		<stop  offset="0.5683" style="stop-color:#C7C4C5"/>
		<stop  offset="0.6358" style="stop-color:#E0DEDF"/>
		<stop  offset="0.6951" style="stop-color:#F1F0F0"/>
		<stop  offset="0.7394" style="stop-color:#F7F7F8"/>
		<stop  offset="0.802" style="stop-color:#F1F0F1"/>
		<stop  offset="0.8779" style="stop-color:#E3E1E2"/>
		<stop  offset="0.9604" style="stop-color:#CCCACA"/>
		<stop  offset="1" style="stop-color:#C0BDBE"/>
	</linearGradient>
	<polygon style="fill:url(#SVGID_3_);" points="9.708,108.489 14.39,112.275 25.281,121.115 32.043,126.61 36.526,130.258 
		47.924,139.503 70.364,157.739 75.582,161.969 86.676,170.985 90.855,174.354 97.035,179.395 108.863,169.795 120.083,160.677 
		128.593,153.788 136.8,147.126 142.524,151.787 149.185,157.182 140.979,163.843 132.494,170.732 121.249,179.876 109.445,189.449 
		97.491,199.15 85.08,189.095 74.721,180.687 63.627,171.669 35.969,149.229 24.571,139.959 20.088,136.337 13.326,130.841 
		9.708,127.904 	"/>
	<linearGradient id="SVGID_4_" gradientUnits="userSpaceOnUse" x1="9.7676" y1="84.6934" x2="183.042" y2="84.6934">
		<stop  offset="0" style="stop-color:#883C1D"/>
		<stop  offset="0.0726" style="stop-color:#BB7329"/>
		<stop  offset="0.1788" style="stop-color:#FEE645"/>
		<stop  offset="0.2346" style="stop-color:#B56F29"/>
		<stop  offset="0.2924" style="stop-color:#EBA22F"/>
		<stop  offset="0.3818" style="stop-color:#FEEB4E"/>
		<stop  offset="0.4469" style="stop-color:#DE9626"/>
		<stop  offset="0.527" style="stop-color:#E19F26"/>
		<stop  offset="0.5959" style="stop-color:#AC6F29"/>
		<stop  offset="0.7058" style="stop-color:#C58F2C"/>
		<stop  offset="0.8156" style="stop-color:#F5B92E"/>
		<stop  offset="0.9088" style="stop-color:#C18635"/>
		<stop  offset="1" style="stop-color:#883C1D"/>
	</linearGradient>
	<path style="fill:url(#SVGID_4_);" d="M88.415,151.2l-5.188-4.231l-22.47-18.209l-11.784-9.605h-0.029L12.338,89.437
		c-1.634-1.329-2.571-3.299-2.571-5.405c0-2.105,0.937-4.075,2.569-5.401L96.938,9.943l78.022,63.334
		c5.433,5.412,8.061,12.486,8.082,22.021L164.93,80.611l-45.081-36.626l-11.282-9.148h-0.021l-4.727-3.867l-6.881-5.588
		L24.062,84.565l7.337,5.979l38.703,31.411l28.61,23.24l16.69-13.553l8.703,7.074l-25.522,20.726L88.415,151.2z"/>
	<linearGradient id="SVGID_5_" gradientUnits="userSpaceOnUse" x1="48.3979" y1="89.0146" x2="183.5908" y2="89.0146">
		<stop  offset="0" style="stop-color:#883C1D"/>
		<stop  offset="0.0726" style="stop-color:#BB7329"/>
		<stop  offset="0.1788" style="stop-color:#FEE645"/>
		<stop  offset="0.2346" style="stop-color:#B56F29"/>
		<stop  offset="0.2924" style="stop-color:#EBA22F"/>
		<stop  offset="0.3818" style="stop-color:#FEEB4E"/>
		<stop  offset="0.4469" style="stop-color:#DE9626"/>
		<stop  offset="0.527" style="stop-color:#E19F26"/>
		<stop  offset="0.5959" style="stop-color:#AC6F29"/>
		<stop  offset="0.7058" style="stop-color:#C58F2C"/>
		<stop  offset="0.8156" style="stop-color:#F5B92E"/>
		<stop  offset="0.9088" style="stop-color:#C18635"/>
		<stop  offset="1" style="stop-color:#883C1D"/>
	</linearGradient>
	<polygon style="fill:url(#SVGID_5_);" points="163.438,115.083 159.288,111.693 142.971,98.467 104.652,67.339 96.912,61.069 
		64.148,87.702 56.895,93.571 48.398,86.694 97.774,46.593 169.11,104.505 173.26,107.895 183.591,116.271 183.591,131.437 	"/>
	<linearGradient id="SVGID_6_" gradientUnits="userSpaceOnUse" x1="8.6187" y1="158.5488" x2="184.3369" y2="158.5488">
		<stop  offset="0" style="stop-color:#85868C"/>
		<stop  offset="0.3427" style="stop-color:#C2C1C2"/>
		<stop  offset="0.691" style="stop-color:#5D5D64"/>
		<stop  offset="1" style="stop-color:#2F2F33"/>
	</linearGradient>
	<path style="fill:url(#SVGID_6_);" d="M14.459,166.372c-5.825-4.736-7.487-12.787-4.104-19.407l63.598,51.636l12.383,10.079
		l12.021,9.732l23.188-18.801l50.117-40.708l-19.139-15.581l-5.754-4.639l-6.203-5.035l-4.15-3.393l-11.097-9.02l-5.223-4.207
		L96.711,98.023L79.539,111.98l-9.007-7.33l26.129-21.208l38.078,30.94l21.479,17.427l5.722,4.66l10.618,8.587l8.537,6.952
		c2.058,1.669,3.241,4.145,3.243,6.797c0.001,2.652-1.179,5.132-3.236,6.804l-83.782,68.044L14.459,166.372z"/>
	<linearGradient id="SVGID_7_" gradientUnits="userSpaceOnUse" x1="11.2979" y1="154.4287" x2="146.8716" y2="154.4287">
		<stop  offset="0" style="stop-color:#85868C"/>
		<stop  offset="0.3427" style="stop-color:#C2C1C2"/>
		<stop  offset="0.691" style="stop-color:#5D5D64"/>
		<stop  offset="1" style="stop-color:#2F2F33"/>
	</linearGradient>
	<polygon style="fill:url(#SVGID_7_);" points="37.001,148.06 25.603,138.79 11.298,127.188 11.298,111.648 85.806,172.158 
		89.99,175.53 97.114,181.337 121.114,161.847 136.879,149.07 146.872,157.183 97.571,197.209 	"/>
</g>
<g>
	<linearGradient id="SVGID_8_" gradientUnits="userSpaceOnUse" x1="601.2461" y1="-16.2686" x2="627.3035" y2="123.3996">
		<stop  offset="0" style="stop-color:#883C1D"/>
		<stop  offset="0.0726" style="stop-color:#BB7329"/>
		<stop  offset="0.1788" style="stop-color:#FEE645"/>
		<stop  offset="0.2346" style="stop-color:#B56F29"/>
		<stop  offset="0.2924" style="stop-color:#EBA22F"/>
		<stop  offset="0.3818" style="stop-color:#FEEB4E"/>
		<stop  offset="0.4469" style="stop-color:#DE9626"/>
		<stop  offset="0.527" style="stop-color:#E19F26"/>
		<stop  offset="0.5959" style="stop-color:#AC6F29"/>
		<stop  offset="0.7058" style="stop-color:#C58F2C"/>
		<stop  offset="0.8156" style="stop-color:#F5B92E"/>
		<stop  offset="0.9088" style="stop-color:#C18635"/>
		<stop  offset="1" style="stop-color:#883C1D"/>
	</linearGradient>
	<polygon style="fill:url(#SVGID_8_);" points="614.364,48.44 627.244,32.441 595.267,32.441 595.267,42.329 604.985,51.623 	"/>
	<linearGradient id="SVGID_9_" gradientUnits="userSpaceOnUse" x1="626.0439" y1="-20.8945" x2="652.101" y2="118.7716">
		<stop  offset="0" style="stop-color:#883C1D"/>
		<stop  offset="0.0726" style="stop-color:#BB7329"/>
		<stop  offset="0.1788" style="stop-color:#FEE645"/>
		<stop  offset="0.2346" style="stop-color:#B56F29"/>
		<stop  offset="0.2924" style="stop-color:#EBA22F"/>
		<stop  offset="0.3818" style="stop-color:#FEEB4E"/>
		<stop  offset="0.4469" style="stop-color:#DE9626"/>
		<stop  offset="0.527" style="stop-color:#E19F26"/>
		<stop  offset="0.5959" style="stop-color:#AC6F29"/>
		<stop  offset="0.7058" style="stop-color:#C58F2C"/>
		<stop  offset="0.8156" style="stop-color:#F5B92E"/>
		<stop  offset="0.9088" style="stop-color:#C18635"/>
		<stop  offset="1" style="stop-color:#883C1D"/>
	</linearGradient>
	<polygon style="fill:url(#SVGID_9_);" points="651.498,35.539 651.498,32.441 633.525,32.441 623.212,47.019 	"/>
	<linearGradient id="SVGID_10_" gradientUnits="userSpaceOnUse" x1="643.6914" y1="-24.1895" x2="669.7497" y2="115.4833">
		<stop  offset="0" style="stop-color:#883C1D"/>
		<stop  offset="0.0726" style="stop-color:#BB7329"/>
		<stop  offset="0.1788" style="stop-color:#FEE645"/>
		<stop  offset="0.2346" style="stop-color:#B56F29"/>
		<stop  offset="0.2924" style="stop-color:#EBA22F"/>
		<stop  offset="0.3818" style="stop-color:#FEEB4E"/>
		<stop  offset="0.4469" style="stop-color:#DE9626"/>
		<stop  offset="0.527" style="stop-color:#E19F26"/>
		<stop  offset="0.5959" style="stop-color:#AC6F29"/>
		<stop  offset="0.7058" style="stop-color:#C58F2C"/>
		<stop  offset="0.8156" style="stop-color:#F5B92E"/>
		<stop  offset="0.9088" style="stop-color:#C18635"/>
		<stop  offset="1" style="stop-color:#883C1D"/>
	</linearGradient>
	<polygon style="fill:url(#SVGID_10_);" points="664.356,32.441 659.625,32.441 659.625,35.539 653.619,37.13 649.015,70.02 
		668.834,44.896 	"/>
	<linearGradient id="SVGID_11_" gradientUnits="userSpaceOnUse" x1="681.9863" y1="-31.333" x2="708.0444" y2="108.3383">
		<stop  offset="0" style="stop-color:#883C1D"/>
		<stop  offset="0.0726" style="stop-color:#BB7329"/>
		<stop  offset="0.1788" style="stop-color:#FEE645"/>
		<stop  offset="0.2346" style="stop-color:#B56F29"/>
		<stop  offset="0.2924" style="stop-color:#EBA22F"/>
		<stop  offset="0.3818" style="stop-color:#FEEB4E"/>
		<stop  offset="0.4469" style="stop-color:#DE9626"/>
		<stop  offset="0.527" style="stop-color:#E19F26"/>
		<stop  offset="0.5959" style="stop-color:#AC6F29"/>
		<stop  offset="0.7058" style="stop-color:#C58F2C"/>
		<stop  offset="0.8156" style="stop-color:#F5B92E"/>
		<stop  offset="0.9088" style="stop-color:#C18635"/>
		<stop  offset="1" style="stop-color:#883C1D"/>
	</linearGradient>
	<polygon style="fill:url(#SVGID_11_);" points="692.472,32.441 690.753,42.435 698.88,49.098 698.88,32.441 	"/>
	<linearGradient id="SVGID_12_" gradientUnits="userSpaceOnUse" x1="616.8203" y1="-19.1782" x2="642.8793" y2="120.4983">
		<stop  offset="0" style="stop-color:#883C1D"/>
		<stop  offset="0.0726" style="stop-color:#BB7329"/>
		<stop  offset="0.1788" style="stop-color:#FEE645"/>
		<stop  offset="0.2346" style="stop-color:#B56F29"/>
		<stop  offset="0.2924" style="stop-color:#EBA22F"/>
		<stop  offset="0.3818" style="stop-color:#FEEB4E"/>
		<stop  offset="0.4469" style="stop-color:#DE9626"/>
		<stop  offset="0.527" style="stop-color:#E19F26"/>
		<stop  offset="0.5959" style="stop-color:#AC6F29"/>
		<stop  offset="0.7058" style="stop-color:#C58F2C"/>
		<stop  offset="0.8156" style="stop-color:#F5B92E"/>
		<stop  offset="0.9088" style="stop-color:#C18635"/>
		<stop  offset="1" style="stop-color:#883C1D"/>
	</linearGradient>
	<polygon style="fill:url(#SVGID_12_);" points="614.364,63.654 622.533,76.811 640.824,76.811 643.371,70.02 646.554,44.197 
		623.212,54.445 	"/>
	<linearGradient id="SVGID_13_" gradientUnits="userSpaceOnUse" x1="646.8252" y1="-24.7773" x2="672.8843" y2="114.8996">
		<stop  offset="0" style="stop-color:#883C1D"/>
		<stop  offset="0.0726" style="stop-color:#BB7329"/>
		<stop  offset="0.1788" style="stop-color:#FEE645"/>
		<stop  offset="0.2346" style="stop-color:#B56F29"/>
		<stop  offset="0.2924" style="stop-color:#EBA22F"/>
		<stop  offset="0.3818" style="stop-color:#FEEB4E"/>
		<stop  offset="0.4469" style="stop-color:#DE9626"/>
		<stop  offset="0.527" style="stop-color:#E19F26"/>
		<stop  offset="0.5959" style="stop-color:#AC6F29"/>
		<stop  offset="0.7058" style="stop-color:#C58F2C"/>
		<stop  offset="0.8156" style="stop-color:#F5B92E"/>
		<stop  offset="0.9088" style="stop-color:#C18635"/>
		<stop  offset="1" style="stop-color:#883C1D"/>
	</linearGradient>
	<polygon style="fill:url(#SVGID_13_);" points="652.813,76.811 678.743,76.811 668.834,53.745 	"/>
	<linearGradient id="SVGID_14_" gradientUnits="userSpaceOnUse" x1="675.9111" y1="-30.2017" x2="701.9699" y2="109.4737">
		<stop  offset="0" style="stop-color:#883C1D"/>
		<stop  offset="0.0726" style="stop-color:#BB7329"/>
		<stop  offset="0.1788" style="stop-color:#FEE645"/>
		<stop  offset="0.2346" style="stop-color:#B56F29"/>
		<stop  offset="0.2924" style="stop-color:#EBA22F"/>
		<stop  offset="0.3818" style="stop-color:#FEEB4E"/>
		<stop  offset="0.4469" style="stop-color:#DE9626"/>
		<stop  offset="0.527" style="stop-color:#E19F26"/>
		<stop  offset="0.5959" style="stop-color:#AC6F29"/>
		<stop  offset="0.7058" style="stop-color:#C58F2C"/>
		<stop  offset="0.8156" style="stop-color:#F5B92E"/>
		<stop  offset="0.9088" style="stop-color:#C18635"/>
		<stop  offset="1" style="stop-color:#883C1D"/>
	</linearGradient>
	<polygon style="fill:url(#SVGID_14_);" points="688.949,76.811 698.88,76.811 698.88,55.782 691.814,50.202 	"/>
	<linearGradient id="SVGID_15_" gradientUnits="userSpaceOnUse" x1="318.772" y1="36.4307" x2="344.8302" y2="176.1029">
		<stop  offset="0" style="stop-color:#883C1D"/>
		<stop  offset="0.0726" style="stop-color:#BB7329"/>
		<stop  offset="0.1788" style="stop-color:#FEE645"/>
		<stop  offset="0.2346" style="stop-color:#B56F29"/>
		<stop  offset="0.2924" style="stop-color:#EBA22F"/>
		<stop  offset="0.3818" style="stop-color:#FEEB4E"/>
		<stop  offset="0.4469" style="stop-color:#DE9626"/>
		<stop  offset="0.527" style="stop-color:#E19F26"/>
		<stop  offset="0.5959" style="stop-color:#AC6F29"/>
		<stop  offset="0.7058" style="stop-color:#C58F2C"/>
		<stop  offset="0.8156" style="stop-color:#F5B92E"/>
		<stop  offset="0.9088" style="stop-color:#C18635"/>
		<stop  offset="1" style="stop-color:#883C1D"/>
	</linearGradient>
	<polygon style="fill:url(#SVGID_15_);" points="305.625,76.811 420.823,76.811 420.823,85.829 215.803,85.829 215.803,140.256 
		404.039,140.256 404.039,120.055 234.285,120.055 234.285,104.926 440.366,104.926 440.366,32.441 305.625,32.441 	"/>
	<linearGradient id="SVGID_16_" gradientUnits="userSpaceOnUse" x1="409.9346" y1="19.4214" x2="435.9931" y2="159.0952">
		<stop  offset="0" style="stop-color:#883C1D"/>
		<stop  offset="0.0726" style="stop-color:#BB7329"/>
		<stop  offset="0.1788" style="stop-color:#FEE645"/>
		<stop  offset="0.2346" style="stop-color:#B56F29"/>
		<stop  offset="0.2924" style="stop-color:#EBA22F"/>
		<stop  offset="0.3818" style="stop-color:#FEEB4E"/>
		<stop  offset="0.4469" style="stop-color:#DE9626"/>
		<stop  offset="0.527" style="stop-color:#E19F26"/>
		<stop  offset="0.5959" style="stop-color:#AC6F29"/>
		<stop  offset="0.7058" style="stop-color:#C58F2C"/>
		<stop  offset="0.8156" style="stop-color:#F5B92E"/>
		<stop  offset="0.9088" style="stop-color:#C18635"/>
		<stop  offset="1" style="stop-color:#883C1D"/>
	</linearGradient>
	<rect x="420.823" y="120.055" style="fill:url(#SVGID_16_);" width="19.543" height="20.201"/>
	<linearGradient id="SVGID_17_" gradientUnits="userSpaceOnUse" x1="443.9375" y1="13.0791" x2="469.9956" y2="152.7509">
		<stop  offset="0" style="stop-color:#883C1D"/>
		<stop  offset="0.0726" style="stop-color:#BB7329"/>
		<stop  offset="0.1788" style="stop-color:#FEE645"/>
		<stop  offset="0.2346" style="stop-color:#B56F29"/>
		<stop  offset="0.2924" style="stop-color:#EBA22F"/>
		<stop  offset="0.3818" style="stop-color:#FEEB4E"/>
		<stop  offset="0.4469" style="stop-color:#DE9626"/>
		<stop  offset="0.527" style="stop-color:#E19F26"/>
		<stop  offset="0.5959" style="stop-color:#AC6F29"/>
		<stop  offset="0.7058" style="stop-color:#C58F2C"/>
		<stop  offset="0.8156" style="stop-color:#F5B92E"/>
		<stop  offset="0.9088" style="stop-color:#C18635"/>
		<stop  offset="1" style="stop-color:#883C1D"/>
	</linearGradient>
	<polygon style="fill:url(#SVGID_17_);" points="448.854,32.441 448.854,140.256 466.36,140.256 466.36,32.441 466.36,32.441 
		448.854,32.441 	"/>
	<linearGradient id="SVGID_18_" gradientUnits="userSpaceOnUse" x1="526.8721" y1="-2.395" x2="552.9304" y2="137.2781">
		<stop  offset="0" style="stop-color:#883C1D"/>
		<stop  offset="0.0726" style="stop-color:#BB7329"/>
		<stop  offset="0.1788" style="stop-color:#FEE645"/>
		<stop  offset="0.2346" style="stop-color:#B56F29"/>
		<stop  offset="0.2924" style="stop-color:#EBA22F"/>
		<stop  offset="0.3818" style="stop-color:#FEEB4E"/>
		<stop  offset="0.4469" style="stop-color:#DE9626"/>
		<stop  offset="0.527" style="stop-color:#E19F26"/>
		<stop  offset="0.5959" style="stop-color:#AC6F29"/>
		<stop  offset="0.7058" style="stop-color:#C58F2C"/>
		<stop  offset="0.8156" style="stop-color:#F5B92E"/>
		<stop  offset="0.9088" style="stop-color:#C18635"/>
		<stop  offset="1" style="stop-color:#883C1D"/>
	</linearGradient>
	<polygon style="fill:url(#SVGID_18_);" points="615.785,52.684 604.985,58.689 595.267,49.629 589.602,44.366 589.602,32.441 
		474.848,32.441 474.848,32.441 474.848,140.256 494.836,140.256 494.836,76.811 616.847,76.811 607.998,63.294 	"/>
	<linearGradient id="SVGID_19_" gradientUnits="userSpaceOnUse" x1="666.4082" y1="-28.4287" x2="692.4667" y2="111.2455">
		<stop  offset="0" style="stop-color:#883C1D"/>
		<stop  offset="0.0726" style="stop-color:#BB7329"/>
		<stop  offset="0.1788" style="stop-color:#FEE645"/>
		<stop  offset="0.2346" style="stop-color:#B56F29"/>
		<stop  offset="0.2924" style="stop-color:#EBA22F"/>
		<stop  offset="0.3818" style="stop-color:#FEEB4E"/>
		<stop  offset="0.4469" style="stop-color:#DE9626"/>
		<stop  offset="0.527" style="stop-color:#E19F26"/>
		<stop  offset="0.5959" style="stop-color:#AC6F29"/>
		<stop  offset="0.7058" style="stop-color:#C58F2C"/>
		<stop  offset="0.8156" style="stop-color:#F5B92E"/>
		<stop  offset="0.9088" style="stop-color:#C18635"/>
		<stop  offset="1" style="stop-color:#883C1D"/>
	</linearGradient>
	<polygon style="fill:url(#SVGID_19_);" points="671.656,44.197 684.388,73.542 687.931,42.435 678.722,35.539 	"/>
	<linearGradient id="SVGID_20_" gradientUnits="userSpaceOnUse" x1="673.9736" y1="-29.832" x2="700.0293" y2="109.8265">
		<stop  offset="0" style="stop-color:#883C1D"/>
		<stop  offset="0.0726" style="stop-color:#BB7329"/>
		<stop  offset="0.1788" style="stop-color:#FEE645"/>
		<stop  offset="0.2346" style="stop-color:#B56F29"/>
		<stop  offset="0.2924" style="stop-color:#EBA22F"/>
		<stop  offset="0.3818" style="stop-color:#FEEB4E"/>
		<stop  offset="0.4469" style="stop-color:#DE9626"/>
		<stop  offset="0.527" style="stop-color:#E19F26"/>
		<stop  offset="0.5959" style="stop-color:#AC6F29"/>
		<stop  offset="0.7058" style="stop-color:#C58F2C"/>
		<stop  offset="0.8156" style="stop-color:#F5B92E"/>
		<stop  offset="0.9088" style="stop-color:#C18635"/>
		<stop  offset="1" style="stop-color:#883C1D"/>
	</linearGradient>
	<polygon style="fill:url(#SVGID_20_);" points="687.135,32.441 684.049,32.441 687.135,34.736 	"/>
</g>
<g>
	<path style="fill:#F2F2F3;" d="M659.741,105.004c-0.62-0.465-1.239-0.775-2.015-0.775c-0.465,0-0.93,0-1.239,0.155
		c-0.311,0.155-0.62,0.31-0.93,0.62c-0.62,0.465-0.93,1.24-0.93,1.86c0,0.775,0.31,1.396,0.93,1.86
		c0.619,0.465,1.395,0.775,2.169,0.775c0.775,0,1.55-0.31,2.015-0.775c0.62-0.465,0.93-1.085,0.93-1.86
		c0-0.31-0.155-0.62-0.31-1.085C660.206,105.469,660.051,105.314,659.741,105.004z"/>
	<path style="fill:#F2F2F3;" d="M651.993,105.004c-0.62-0.465-1.239-0.775-2.015-0.775c-0.465,0-0.774,0-1.239,0.155
		c-0.311,0.155-0.62,0.31-0.93,0.62c-0.62,0.62-0.775,1.24-0.775,1.86c0,0.775,0.155,1.396,0.775,1.86
		c0.619,0.465,1.395,0.775,2.169,0.775c0.775,0,1.55-0.31,2.015-0.775c0.62-0.465,0.93-1.085,0.93-1.86c0-0.31,0-0.62-0.154-1.085
		C652.613,105.469,652.303,105.314,651.993,105.004z"/>
	<path style="fill:#F2F2F3;" d="M598.427,134.135c-0.619-0.465-1.239-0.774-2.015-0.774c-0.464,0-0.929,0-1.239,0.154
		c-0.31,0.155-0.619,0.311-0.93,0.62c-0.62,0.466-0.93,1.24-0.93,1.861c0,0.774,0.31,1.395,0.93,1.859
		c0.62,0.466,1.395,0.775,2.169,0.775c0.775,0,1.55-0.31,2.015-0.775c0.62-0.465,0.93-1.085,0.93-1.859
		c0-0.311-0.154-0.621-0.31-1.086C598.892,134.601,598.737,134.445,598.427,134.135z"/>
	<path style="fill:#F2F2F3;" d="M590.68,134.135c-0.62-0.465-1.24-0.774-2.015-0.774c-0.465,0-0.775,0-1.24,0.154
		c-0.31,0.155-0.619,0.311-0.93,0.62c-0.62,0.621-0.774,1.24-0.774,1.861c0,0.774,0.154,1.395,0.774,1.859
		c0.62,0.466,1.395,0.775,2.17,0.775c0.774,0,1.55-0.31,2.015-0.775c0.619-0.465,0.93-1.085,0.93-1.859c0-0.311,0-0.621-0.155-1.086
		C591.299,134.601,590.989,134.445,590.68,134.135z"/>
	<path style="fill:#F2F2F3;" d="M595.278,111.19v11.783c0,1.86-0.93,2.791-2.789,2.791h-61.05c-0.31,0-0.774-0.155-1.239-0.155
		s-0.93-0.155-1.24-0.155v-23.1h-5.733v28.991c0,1.085-0.154,1.86-0.619,2.325c-0.62,0.62-1.705,0.931-3.409,0.931
		c-2.324,0-4.339-0.155-6.354-0.62v-15.659h-5.578v18.604c3.254,1.24,7.438,1.705,12.551,1.705c2.79,0,4.959-0.62,6.664-1.86
		c1.549-1.085,2.479-2.79,2.479-4.961v-1.705c0.465,0.155,0.775,0.31,1.085,0.31h62.6c5.423,0,8.212-2.015,8.212-6.356V111.19
		c0.001,0,0.001,0,0.001,0L595.278,111.19L595.278,111.19z"/>
	<path style="fill:#F2F2F3;" d="M694.297,102.354v20.619c0,1.86-0.774,2.791-2.635,2.791h-2.634h-1.395h-2.479
		c-1.859,0-2.635-1.086-2.635-3.101v-20.309h-5.733v20.619c0,1.86-0.774,2.791-2.634,2.791h-2.635h-1.395h-2.634
		c-1.705,0-2.635-1.086-2.635-3.101V111.19h-5.578v11.783c0,1.86-0.93,2.791-2.635,2.791h-2.634h-1.395h-0.311
		c-0.619,0-1.084-0.155-1.549-0.155s-0.775-0.155-0.931-0.155c-0.464-0.155-0.774-0.62-0.774-1.395c0-0.465,0.155-0.93,0.155-1.706
		c0-0.62,0.155-1.24,0.155-1.55c0-1.395-0.155-2.791-0.62-4.031c-0.311-1.085-0.775-2.17-1.55-3.101
		c-1.55-1.86-3.719-2.946-6.508-2.946c-2.79,0-4.959,1.085-6.509,2.946c-0.774,0.93-1.239,2.015-1.55,3.101
		c-0.31,1.24-0.619,2.48-0.619,4.031c0,0.465,0.154,0.93,0.154,1.706c0.155,0.62,0.155,1.24,0.155,1.55
		c0,0.775-0.31,1.24-0.62,1.395c-0.465,0.155-1.239,0.311-2.634,0.311h-0.311h-1.395h-2.634v-7.132c0-3.101-0.93-5.116-2.479-6.356
		c-0.62-0.62-1.395-0.93-2.169-1.085c-0.93-0.31-1.705-0.465-2.79-0.465c-3.099,0-5.578,1.085-7.282,3.101
		c-1.55,1.86-2.324,4.186-2.324,7.287c0,1.396,0.154,2.48,0.464,3.565c0.465,1.086,0.93,2.171,1.705,2.946
		c1.55,1.86,3.719,2.79,6.508,2.79h2.79v0.466c0,2.48-1.396,3.565-3.874,3.565c-1.55,0-3.255-0.311-4.959-1.24l-1.705,3.721
		c2.015,1.085,4.494,1.705,7.438,1.705c2.635,0,4.648-0.775,6.198-2.17c1.704-1.551,2.479-3.411,2.479-6.047h2.634h1.395h1.24
		c2.169,0,3.874-0.62,4.959-1.705c1.549,1.396,3.408,2.171,5.733,2.171c2.324,0,4.339-0.775,5.733-2.171
		c1.084,1.085,2.789,1.705,5.113,1.705h1.085h1.395h2.789c2.324,0,4.029-0.31,5.424-1.085c1.239,0.775,3.099,1.085,5.269,1.085
		h2.634h1.395h2.79c2.324,0,4.028-0.31,5.423-1.085c1.24,0.775,3.1,1.085,5.269,1.085h2.635h1.395h2.789
		c5.424,0,8.213-2.17,8.213-6.356v-21.705H694.297z M619.143,125.764h-2.325c-2.479,0-3.719-1.706-3.719-4.807
		c0-4.341,1.24-6.511,3.564-6.511c0.93,0,1.549,0.31,2.015,1.085c0.31,0.465,0.465,1.395,0.465,2.48V125.764z M643.78,120.802
		c0,1.085,0,1.86-0.155,2.48c0,0.775-0.154,1.24-0.31,1.706c-0.465,1.24-1.395,1.86-2.634,1.86c-2.015,0-3.1-2.016-3.1-6.046
		c0-1.86,0.155-3.101,0.31-4.031c0.62-1.551,1.55-2.326,2.79-2.326c1.239,0,2.169,0.62,2.634,2.015
		c0.155,0.465,0.31,1.085,0.465,1.706C643.78,118.942,643.78,119.717,643.78,120.802z"/>
</g>
<g>
	<linearGradient id="SVGID_21_" gradientUnits="userSpaceOnUse" x1="633.6309" y1="-24.6226" x2="522.1022" y2="256.8057">
		<stop  offset="0" style="stop-color:#883C1D"/>
		<stop  offset="0.0726" style="stop-color:#BB7329"/>
		<stop  offset="0.1788" style="stop-color:#FEE645"/>
		<stop  offset="0.2346" style="stop-color:#B56F29"/>
		<stop  offset="0.2924" style="stop-color:#EBA22F"/>
		<stop  offset="0.3818" style="stop-color:#FEEB4E"/>
		<stop  offset="0.4469" style="stop-color:#DE9626"/>
		<stop  offset="0.527" style="stop-color:#E19F26"/>
		<stop  offset="0.5959" style="stop-color:#AC6F29"/>
		<stop  offset="0.7058" style="stop-color:#C58F2C"/>
		<stop  offset="0.8156" style="stop-color:#F5B92E"/>
		<stop  offset="0.9088" style="stop-color:#C18635"/>
		<stop  offset="1" style="stop-color:#883C1D"/>
	</linearGradient>
	<polygon style="fill:url(#SVGID_21_);" points="596.892,41.636 596.892,34.064 623.854,34.064 613.396,47.055 605.395,49.77 	"/>
	<linearGradient id="SVGID_22_" gradientUnits="userSpaceOnUse" x1="659.873" y1="-14.2227" x2="548.3431" y2="267.2088">
		<stop  offset="0" style="stop-color:#883C1D"/>
		<stop  offset="0.0726" style="stop-color:#BB7329"/>
		<stop  offset="0.1788" style="stop-color:#FEE645"/>
		<stop  offset="0.2346" style="stop-color:#B56F29"/>
		<stop  offset="0.2924" style="stop-color:#EBA22F"/>
		<stop  offset="0.3818" style="stop-color:#FEEB4E"/>
		<stop  offset="0.4469" style="stop-color:#DE9626"/>
		<stop  offset="0.527" style="stop-color:#E19F26"/>
		<stop  offset="0.5959" style="stop-color:#AC6F29"/>
		<stop  offset="0.7058" style="stop-color:#C58F2C"/>
		<stop  offset="0.8156" style="stop-color:#F5B92E"/>
		<stop  offset="0.9088" style="stop-color:#C18635"/>
		<stop  offset="1" style="stop-color:#883C1D"/>
	</linearGradient>
	<polygon style="fill:url(#SVGID_22_);" points="634.364,34.064 649.873,34.064 649.873,34.445 627.74,43.428 	"/>
	<linearGradient id="SVGID_23_" gradientUnits="userSpaceOnUse" x1="679.9688" y1="-6.2598" x2="568.438" y2="275.1735">
		<stop  offset="0" style="stop-color:#883C1D"/>
		<stop  offset="0.0726" style="stop-color:#BB7329"/>
		<stop  offset="0.1788" style="stop-color:#FEE645"/>
		<stop  offset="0.2346" style="stop-color:#B56F29"/>
		<stop  offset="0.2924" style="stop-color:#EBA22F"/>
		<stop  offset="0.3818" style="stop-color:#FEEB4E"/>
		<stop  offset="0.4469" style="stop-color:#DE9626"/>
		<stop  offset="0.527" style="stop-color:#E19F26"/>
		<stop  offset="0.5959" style="stop-color:#AC6F29"/>
		<stop  offset="0.7058" style="stop-color:#C58F2C"/>
		<stop  offset="0.8156" style="stop-color:#F5B92E"/>
		<stop  offset="0.9088" style="stop-color:#C18635"/>
		<stop  offset="1" style="stop-color:#883C1D"/>
	</linearGradient>
	<polygon style="fill:url(#SVGID_23_);" points="655.076,38.423 661.25,36.788 661.25,34.064 663.216,34.064 667.001,44.597 
		651.453,64.309 	"/>
	<linearGradient id="SVGID_24_" gradientUnits="userSpaceOnUse" x1="709.2314" y1="5.3374" x2="597.7023" y2="286.7667">
		<stop  offset="0" style="stop-color:#883C1D"/>
		<stop  offset="0.0726" style="stop-color:#BB7329"/>
		<stop  offset="0.1788" style="stop-color:#FEE645"/>
		<stop  offset="0.2346" style="stop-color:#B56F29"/>
		<stop  offset="0.2924" style="stop-color:#EBA22F"/>
		<stop  offset="0.3818" style="stop-color:#FEEB4E"/>
		<stop  offset="0.4469" style="stop-color:#DE9626"/>
		<stop  offset="0.527" style="stop-color:#E19F26"/>
		<stop  offset="0.5959" style="stop-color:#AC6F29"/>
		<stop  offset="0.7058" style="stop-color:#C58F2C"/>
		<stop  offset="0.8156" style="stop-color:#F5B92E"/>
		<stop  offset="0.9088" style="stop-color:#C18635"/>
		<stop  offset="1" style="stop-color:#883C1D"/>
	</linearGradient>
	<polygon style="fill:url(#SVGID_24_);" points="692.512,41.778 693.84,34.064 697.257,34.064 697.257,45.668 	"/>
	<linearGradient id="SVGID_25_" gradientUnits="userSpaceOnUse" x1="661.0596" y1="-13.7539" x2="549.5285" y2="267.6802">
		<stop  offset="0" style="stop-color:#883C1D"/>
		<stop  offset="0.0726" style="stop-color:#BB7329"/>
		<stop  offset="0.1788" style="stop-color:#FEE645"/>
		<stop  offset="0.2346" style="stop-color:#B56F29"/>
		<stop  offset="0.2924" style="stop-color:#EBA22F"/>
		<stop  offset="0.3818" style="stop-color:#FEEB4E"/>
		<stop  offset="0.4469" style="stop-color:#DE9626"/>
		<stop  offset="0.527" style="stop-color:#E19F26"/>
		<stop  offset="0.5959" style="stop-color:#AC6F29"/>
		<stop  offset="0.7058" style="stop-color:#C58F2C"/>
		<stop  offset="0.8156" style="stop-color:#F5B92E"/>
		<stop  offset="0.9088" style="stop-color:#C18635"/>
		<stop  offset="1" style="stop-color:#883C1D"/>
	</linearGradient>
	<polygon style="fill:url(#SVGID_25_);" points="623.438,75.185 616.408,63.87 624.161,55.8 644.595,46.831 641.781,69.632 
		639.701,75.185 	"/>
	<linearGradient id="SVGID_26_" gradientUnits="userSpaceOnUse" x1="695.8779" y1="0.0469" x2="584.3503" y2="281.4723">
		<stop  offset="0" style="stop-color:#883C1D"/>
		<stop  offset="0.0726" style="stop-color:#BB7329"/>
		<stop  offset="0.1788" style="stop-color:#FEE645"/>
		<stop  offset="0.2346" style="stop-color:#B56F29"/>
		<stop  offset="0.2924" style="stop-color:#EBA22F"/>
		<stop  offset="0.3818" style="stop-color:#FEEB4E"/>
		<stop  offset="0.4469" style="stop-color:#DE9626"/>
		<stop  offset="0.527" style="stop-color:#E19F26"/>
		<stop  offset="0.5959" style="stop-color:#AC6F29"/>
		<stop  offset="0.7058" style="stop-color:#C58F2C"/>
		<stop  offset="0.8156" style="stop-color:#F5B92E"/>
		<stop  offset="0.9088" style="stop-color:#C18635"/>
		<stop  offset="1" style="stop-color:#883C1D"/>
	</linearGradient>
	<polygon style="fill:url(#SVGID_26_);" points="655.918,75.185 668.497,57.075 676.281,75.185 	"/>
	<linearGradient id="SVGID_27_" gradientUnits="userSpaceOnUse" x1="717.2676" y1="8.522" x2="605.7383" y2="289.9517">
		<stop  offset="0" style="stop-color:#883C1D"/>
		<stop  offset="0.0726" style="stop-color:#BB7329"/>
		<stop  offset="0.1788" style="stop-color:#FEE645"/>
		<stop  offset="0.2346" style="stop-color:#B56F29"/>
		<stop  offset="0.2924" style="stop-color:#EBA22F"/>
		<stop  offset="0.3818" style="stop-color:#FEEB4E"/>
		<stop  offset="0.4469" style="stop-color:#DE9626"/>
		<stop  offset="0.527" style="stop-color:#E19F26"/>
		<stop  offset="0.5959" style="stop-color:#AC6F29"/>
		<stop  offset="0.7058" style="stop-color:#C58F2C"/>
		<stop  offset="0.8156" style="stop-color:#F5B92E"/>
		<stop  offset="0.9088" style="stop-color:#C18635"/>
		<stop  offset="1" style="stop-color:#883C1D"/>
	</linearGradient>
	<polygon style="fill:url(#SVGID_27_);" points="690.756,75.185 693.115,53.298 697.257,56.566 697.257,75.185 	"/>
	<linearGradient id="SVGID_28_" gradientUnits="userSpaceOnUse" x1="410.6582" y1="-112.9854" x2="299.129" y2="168.4441">
		<stop  offset="0" style="stop-color:#883C1D"/>
		<stop  offset="0.0726" style="stop-color:#BB7329"/>
		<stop  offset="0.1788" style="stop-color:#FEE645"/>
		<stop  offset="0.2346" style="stop-color:#B56F29"/>
		<stop  offset="0.2924" style="stop-color:#EBA22F"/>
		<stop  offset="0.3818" style="stop-color:#FEEB4E"/>
		<stop  offset="0.4469" style="stop-color:#DE9626"/>
		<stop  offset="0.527" style="stop-color:#E19F26"/>
		<stop  offset="0.5959" style="stop-color:#AC6F29"/>
		<stop  offset="0.7058" style="stop-color:#C58F2C"/>
		<stop  offset="0.8156" style="stop-color:#F5B92E"/>
		<stop  offset="0.9088" style="stop-color:#C18635"/>
		<stop  offset="1" style="stop-color:#883C1D"/>
	</linearGradient>
	<polygon style="fill:url(#SVGID_28_);" points="217.426,138.631 217.426,87.454 422.448,87.454 422.448,75.185 307.249,75.185 
		307.249,34.064 438.743,34.064 438.743,103.301 232.662,103.301 232.662,121.679 402.415,121.679 402.415,138.631 	"/>
	<linearGradient id="SVGID_29_" gradientUnits="userSpaceOnUse" x1="511.165" y1="-73.1523" x2="399.6373" y2="208.2733">
		<stop  offset="0" style="stop-color:#883C1D"/>
		<stop  offset="0.0726" style="stop-color:#BB7329"/>
		<stop  offset="0.1788" style="stop-color:#FEE645"/>
		<stop  offset="0.2346" style="stop-color:#B56F29"/>
		<stop  offset="0.2924" style="stop-color:#EBA22F"/>
		<stop  offset="0.3818" style="stop-color:#FEEB4E"/>
		<stop  offset="0.4469" style="stop-color:#DE9626"/>
		<stop  offset="0.527" style="stop-color:#E19F26"/>
		<stop  offset="0.5959" style="stop-color:#AC6F29"/>
		<stop  offset="0.7058" style="stop-color:#C58F2C"/>
		<stop  offset="0.8156" style="stop-color:#F5B92E"/>
		<stop  offset="0.9088" style="stop-color:#C18635"/>
		<stop  offset="1" style="stop-color:#883C1D"/>
	</linearGradient>
	<rect x="422.448" y="121.679" style="fill:url(#SVGID_29_);" width="16.295" height="16.952"/>
	<linearGradient id="SVGID_30_" gradientUnits="userSpaceOnUse" x1="519.5059" y1="-69.8501" x2="407.9766" y2="211.5795">
		<stop  offset="0" style="stop-color:#883C1D"/>
		<stop  offset="0.0726" style="stop-color:#BB7329"/>
		<stop  offset="0.1788" style="stop-color:#FEE645"/>
		<stop  offset="0.2346" style="stop-color:#B56F29"/>
		<stop  offset="0.2924" style="stop-color:#EBA22F"/>
		<stop  offset="0.3818" style="stop-color:#FEEB4E"/>
		<stop  offset="0.4469" style="stop-color:#DE9626"/>
		<stop  offset="0.527" style="stop-color:#E19F26"/>
		<stop  offset="0.5959" style="stop-color:#AC6F29"/>
		<stop  offset="0.7058" style="stop-color:#C58F2C"/>
		<stop  offset="0.8156" style="stop-color:#F5B92E"/>
		<stop  offset="0.9088" style="stop-color:#C18635"/>
		<stop  offset="1" style="stop-color:#883C1D"/>
	</linearGradient>
	<rect x="450.478" y="34.064" style="fill:url(#SVGID_30_);" width="14.257" height="104.566"/>
	<linearGradient id="SVGID_31_" gradientUnits="userSpaceOnUse" x1="584.3096" y1="-44.168" x2="472.7809" y2="237.2603">
		<stop  offset="0" style="stop-color:#883C1D"/>
		<stop  offset="0.0726" style="stop-color:#BB7329"/>
		<stop  offset="0.1788" style="stop-color:#FEE645"/>
		<stop  offset="0.2346" style="stop-color:#B56F29"/>
		<stop  offset="0.2924" style="stop-color:#EBA22F"/>
		<stop  offset="0.3818" style="stop-color:#FEEB4E"/>
		<stop  offset="0.4469" style="stop-color:#DE9626"/>
		<stop  offset="0.527" style="stop-color:#E19F26"/>
		<stop  offset="0.5959" style="stop-color:#AC6F29"/>
		<stop  offset="0.7058" style="stop-color:#C58F2C"/>
		<stop  offset="0.8156" style="stop-color:#F5B92E"/>
		<stop  offset="0.9088" style="stop-color:#C18635"/>
		<stop  offset="1" style="stop-color:#883C1D"/>
	</linearGradient>
	<polygon style="fill:url(#SVGID_31_);" points="476.472,138.631 476.472,34.064 587.976,34.064 587.976,45.072 594.163,50.818 
		604.74,60.682 610.081,57.713 606.023,63.24 613.844,75.185 493.212,75.185 493.212,138.631 	"/>
	<linearGradient id="SVGID_32_" gradientUnits="userSpaceOnUse" x1="699.9863" y1="1.6743" x2="588.4568" y2="283.1045">
		<stop  offset="0" style="stop-color:#883C1D"/>
		<stop  offset="0.0726" style="stop-color:#BB7329"/>
		<stop  offset="0.1788" style="stop-color:#FEE645"/>
		<stop  offset="0.2346" style="stop-color:#B56F29"/>
		<stop  offset="0.2924" style="stop-color:#EBA22F"/>
		<stop  offset="0.3818" style="stop-color:#FEEB4E"/>
		<stop  offset="0.4469" style="stop-color:#DE9626"/>
		<stop  offset="0.527" style="stop-color:#E19F26"/>
		<stop  offset="0.5959" style="stop-color:#AC6F29"/>
		<stop  offset="0.7058" style="stop-color:#C58F2C"/>
		<stop  offset="0.8156" style="stop-color:#F5B92E"/>
		<stop  offset="0.9088" style="stop-color:#C18635"/>
		<stop  offset="1" style="stop-color:#883C1D"/>
	</linearGradient>
	<polygon style="fill:url(#SVGID_32_);" points="673.538,44.457 678.996,37.769 686.212,43.177 683.461,67.331 	"/>
	<linearGradient id="SVGID_33_" gradientUnits="userSpaceOnUse" x1="698.4775" y1="1.0713" x2="586.9352" y2="282.5338">
		<stop  offset="0" style="stop-color:#883C1D"/>
		<stop  offset="0.0726" style="stop-color:#BB7329"/>
		<stop  offset="0.1788" style="stop-color:#FEE645"/>
		<stop  offset="0.2346" style="stop-color:#B56F29"/>
		<stop  offset="0.2924" style="stop-color:#EBA22F"/>
		<stop  offset="0.3818" style="stop-color:#FEEB4E"/>
		<stop  offset="0.4469" style="stop-color:#DE9626"/>
		<stop  offset="0.527" style="stop-color:#E19F26"/>
		<stop  offset="0.5959" style="stop-color:#AC6F29"/>
		<stop  offset="0.7058" style="stop-color:#C58F2C"/>
		<stop  offset="0.8156" style="stop-color:#F5B92E"/>
		<stop  offset="0.9088" style="stop-color:#C18635"/>
		<stop  offset="1" style="stop-color:#883C1D"/>
	</linearGradient>
	<polygon style="fill:url(#SVGID_33_);" points="687.135,32.441 684.049,32.441 687.135,34.736 	"/>
</g>
<g>
	<linearGradient id="SVGID_34_" gradientUnits="userSpaceOnUse" x1="233.1128" y1="122.6704" x2="233.1128" y2="222.8116">
		<stop  offset="0" style="stop-color:#883C1D"/>
		<stop  offset="0.0726" style="stop-color:#BB7329"/>
		<stop  offset="0.1788" style="stop-color:#FEE645"/>
		<stop  offset="0.2346" style="stop-color:#B56F29"/>
		<stop  offset="0.2924" style="stop-color:#EBA22F"/>
		<stop  offset="0.3818" style="stop-color:#FEEB4E"/>
		<stop  offset="0.4469" style="stop-color:#DE9626"/>
		<stop  offset="0.527" style="stop-color:#E19F26"/>
		<stop  offset="0.5959" style="stop-color:#AC6F29"/>
		<stop  offset="0.7058" style="stop-color:#C58F2C"/>
		<stop  offset="0.8156" style="stop-color:#F5B92E"/>
		<stop  offset="0.9088" style="stop-color:#C18635"/>
		<stop  offset="1" style="stop-color:#883C1D"/>
	</linearGradient>
	<path style="fill:url(#SVGID_34_);" d="M246.232,160.909h-1.048c-0.254-0.732-0.66-1.557-1.215-2.479
		c-0.556-0.921-1.286-1.784-2.19-2.595c-0.905-0.81-2.001-1.484-3.286-2.022c-1.286-0.538-2.801-0.81-4.547-0.81
		c-1.555,0-2.937,0.237-4.143,0.713c-1.208,0.475-2.214,1.145-3.024,2.003c-0.81,0.854-1.421,1.872-1.833,3.046
		s-0.619,2.474-0.619,3.904c0,2.285,0.643,4.468,1.928,6.548c1.286,2.081,2.896,4.138,4.833,6.165
		c1.935,2.032,4.031,4.064,6.286,6.098c2.253,2.032,4.348,4.142,6.286,6.334c1.935,2.188,3.548,4.482,4.833,6.878
		c1.285,2.401,1.928,4.977,1.928,7.741c0,2.062-0.356,4.133-1.072,6.214c-0.713,2.08-1.816,3.943-3.308,5.597
		c-1.494,1.649-3.415,2.993-5.762,4.021c-2.35,1.033-5.144,1.547-8.381,1.547c-1.809,0-3.534-0.165-5.168-0.499
		c-1.635-0.33-3.143-0.747-4.523-1.237c-1.383-0.49-2.62-1.023-3.716-1.596c-1.094-0.572-1.991-1.096-2.689-1.571l1.094-10.525
		h1.191c0.349,1.494,0.921,2.915,1.714,4.264c0.793,1.348,1.771,2.541,2.93,3.569c1.16,1.033,2.483,1.857,3.975,2.479
		c1.494,0.621,3.128,0.927,4.906,0.927c1.62,0,3.07-0.242,4.358-0.737c1.285-0.49,2.386-1.174,3.308-2.047
		c0.921-0.873,1.627-1.911,2.12-3.119c0.492-1.207,0.737-2.521,0.737-3.953c0-1.998-0.364-3.846-1.094-5.549
		c-0.732-1.697-1.69-3.308-2.881-4.831c-1.19-1.522-2.542-3.002-4.047-4.428c-1.509-1.431-3.056-2.867-4.645-4.313
		c-1.586-1.445-3.136-2.93-4.642-4.452c-1.509-1.523-2.857-3.148-4.048-4.88s-2.151-3.589-2.881-5.573
		c-0.73-1.983-1.096-4.166-1.096-6.548c0-2.508,0.485-4.768,1.453-6.786c0.967-2.013,2.253-3.734,3.858-5.165
		c1.601-1.431,3.419-2.522,5.452-3.284c2.03-0.767,4.125-1.145,6.286-1.145c1.586,0,3.046,0.126,4.38,0.378
		c1.334,0.258,2.532,0.559,3.597,0.907c1.062,0.35,1.991,0.699,2.784,1.048c0.793,0.35,1.445,0.636,1.955,0.858L246.232,160.909z"/>
	<linearGradient id="SVGID_35_" gradientUnits="userSpaceOnUse" x1="285.813" y1="122.6714" x2="285.813" y2="222.8118">
		<stop  offset="0" style="stop-color:#883C1D"/>
		<stop  offset="0.0726" style="stop-color:#BB7329"/>
		<stop  offset="0.1788" style="stop-color:#FEE645"/>
		<stop  offset="0.2346" style="stop-color:#B56F29"/>
		<stop  offset="0.2924" style="stop-color:#EBA22F"/>
		<stop  offset="0.3818" style="stop-color:#FEEB4E"/>
		<stop  offset="0.4469" style="stop-color:#DE9626"/>
		<stop  offset="0.527" style="stop-color:#E19F26"/>
		<stop  offset="0.5959" style="stop-color:#AC6F29"/>
		<stop  offset="0.7058" style="stop-color:#C58F2C"/>
		<stop  offset="0.8156" style="stop-color:#F5B92E"/>
		<stop  offset="0.9088" style="stop-color:#C18635"/>
		<stop  offset="1" style="stop-color:#883C1D"/>
	</linearGradient>
	<path style="fill:url(#SVGID_35_);" d="M280.122,218.149c0.189-0.67,0.364-1.494,0.524-2.479c0.158-0.985,0.301-2.207,0.427-3.667
		s0.223-3.196,0.286-5.215c0.063-2.013,0.095-4.37,0.095-7.071v-30.999c0-2.697-0.032-5.055-0.095-7.072s-0.16-3.764-0.286-5.238
		s-0.269-2.706-0.427-3.691c-0.16-0.984-0.335-1.809-0.524-2.479v-0.188h11.381v0.188c-0.191,0.67-0.374,1.494-0.548,2.479
		c-0.175,0.985-0.318,2.217-0.429,3.691c-0.112,1.475-0.207,3.221-0.287,5.238s-0.119,4.375-0.119,7.072v30.999
		c0,2.701,0.039,5.059,0.119,7.071c0.08,2.019,0.175,3.755,0.287,5.215c0.111,1.46,0.254,2.682,0.429,3.667
		c0.174,0.984,0.356,1.809,0.548,2.479v0.188h-11.381V218.149z"/>
	<linearGradient id="SVGID_36_" gradientUnits="userSpaceOnUse" x1="349.7495" y1="122.6699" x2="349.7495" y2="222.8122">
		<stop  offset="0" style="stop-color:#883C1D"/>
		<stop  offset="0.0726" style="stop-color:#BB7329"/>
		<stop  offset="0.1788" style="stop-color:#FEE645"/>
		<stop  offset="0.2346" style="stop-color:#B56F29"/>
		<stop  offset="0.2924" style="stop-color:#EBA22F"/>
		<stop  offset="0.3818" style="stop-color:#FEEB4E"/>
		<stop  offset="0.4469" style="stop-color:#DE9626"/>
		<stop  offset="0.527" style="stop-color:#E19F26"/>
		<stop  offset="0.5959" style="stop-color:#AC6F29"/>
		<stop  offset="0.7058" style="stop-color:#C58F2C"/>
		<stop  offset="0.8156" style="stop-color:#F5B92E"/>
		<stop  offset="0.9088" style="stop-color:#C18635"/>
		<stop  offset="1" style="stop-color:#883C1D"/>
	</linearGradient>
	<path style="fill:url(#SVGID_36_);" d="M333.156,199.718c0,2.701,0.039,5.059,0.116,7.071c0.078,2.019,0.175,3.755,0.286,5.215
		c0.112,1.46,0.252,2.682,0.427,3.667c0.174,0.984,0.359,1.809,0.548,2.479v0.188h-11.427v-0.188
		c0.189-0.67,0.374-1.494,0.548-2.479c0.175-0.985,0.325-2.207,0.451-3.667s0.223-3.196,0.286-5.215
		c0.063-2.013,0.097-4.37,0.097-7.071v-30.999c0-2.697-0.034-5.055-0.097-7.072s-0.16-3.764-0.286-5.238s-0.276-2.706-0.451-3.691
		c-0.174-0.984-0.359-1.809-0.548-2.479v-0.188c0.635,0.063,1.3,0.126,1.998,0.188c0.606,0.068,1.281,0.107,2.027,0.121
		c0.742,0.015,1.514,0.024,2.309,0.024c1.237,0,2.91-0.15,5.025-0.451c2.11-0.301,4.797-0.456,8.071-0.456
		c3.046,0,5.864,0.418,8.449,1.242c2.59,0.824,4.836,2.032,6.742,3.618c1.901,1.586,3.386,3.531,4.447,5.83
		c1.067,2.305,1.597,4.914,1.597,7.839c0,2.284-0.291,4.404-0.879,6.354c-0.586,1.955-1.416,3.726-2.479,5.312
		c-1.062,1.586-2.342,2.992-3.831,4.215c-1.494,1.223-3.158,2.246-5.001,3.07l16.715,23.476c0.824,1.174,1.596,2.192,2.309,3.052
		c0.718,0.854,1.396,1.586,2.047,2.188c0.649,0.605,1.28,1.105,1.882,1.498c0.602,0.398,1.223,0.723,1.857,0.98v0.188h-13.761
		c-0.097-0.602-0.407-1.406-0.931-2.405c-0.524-0.999-1.136-1.989-1.834-2.974l-16.855-23.767c-1.557,0.16-3.163,0.242-4.812,0.242
		s-3.332-0.146-5.044-0.432V199.718z M333.156,185.287c3.109,0.573,5.956,0.655,8.546,0.243c2.585-0.412,4.807-1.319,6.665-2.717
		c1.857-1.396,3.303-3.293,4.336-5.689c1.028-2.396,1.548-5.311,1.548-8.74c0-2.382-0.272-4.54-0.811-6.476
		c-0.538-1.935-1.343-3.579-2.406-4.928c-1.062-1.349-2.406-2.396-4.021-3.143c-1.62-0.747-3.512-1.121-5.67-1.121
		c-1.363,0-2.556,0.059-3.57,0.165c-1.019,0.112-1.873,0.233-2.571,0.359c-0.829,0.16-1.508,0.335-2.047,0.523V185.287z"/>
	<linearGradient id="SVGID_37_" gradientUnits="userSpaceOnUse" x1="424.5459" y1="122.6704" x2="424.5459" y2="222.8123">
		<stop  offset="0" style="stop-color:#883C1D"/>
		<stop  offset="0.0726" style="stop-color:#BB7329"/>
		<stop  offset="0.1788" style="stop-color:#FEE645"/>
		<stop  offset="0.2346" style="stop-color:#B56F29"/>
		<stop  offset="0.2924" style="stop-color:#EBA22F"/>
		<stop  offset="0.3818" style="stop-color:#FEEB4E"/>
		<stop  offset="0.4469" style="stop-color:#DE9626"/>
		<stop  offset="0.527" style="stop-color:#E19F26"/>
		<stop  offset="0.5959" style="stop-color:#AC6F29"/>
		<stop  offset="0.7058" style="stop-color:#C58F2C"/>
		<stop  offset="0.8156" style="stop-color:#F5B92E"/>
		<stop  offset="0.9088" style="stop-color:#C18635"/>
		<stop  offset="1" style="stop-color:#883C1D"/>
	</linearGradient>
	<path style="fill:url(#SVGID_37_);" d="M445.521,218.338v-0.188c0.063-0.16,0.111-0.398,0.146-0.718
		c0.029-0.315,0.049-0.602,0.049-0.854c0-0.984-0.136-2.07-0.407-3.264c-0.272-1.188-0.786-2.673-1.548-4.453l-5.762-12.95
		c-1.78-0.063-4.143-0.098-7.097-0.098s-6.141,0-9.569,0c-2.508,0-4.929,0-7.262,0c-2.338,0-4.438,0.034-6.31,0.098l-5.477,12.572
		c-0.48,1.174-0.984,2.459-1.528,3.855c-0.538,1.397-0.805,2.809-0.805,4.239c0,0.413,0.029,0.752,0.092,1.023
		c0.063,0.272,0.126,0.451,0.189,0.549v0.188h-9.71v-0.188c0.567-0.606,1.285-1.674,2.139-3.216
		c0.858-1.538,1.795-3.469,2.813-5.787l27.283-60.523h3.813l25.857,58.19c0.602,1.368,1.228,2.692,1.882,3.978
		c0.65,1.285,1.261,2.435,1.833,3.453c0.567,1.014,1.077,1.873,1.523,2.571c0.441,0.698,0.747,1.14,0.902,1.334v0.188H445.521z
		 M414.662,191.719c1.844,0,3.73-0.01,5.67-0.023c1.936-0.015,3.832-0.034,5.69-0.049c1.857-0.015,3.643-0.029,5.354-0.049
		c1.717-0.015,3.27-0.038,4.671-0.067l-13.382-30.242l-13.146,30.431H414.662z"/>
	<linearGradient id="SVGID_38_" gradientUnits="userSpaceOnUse" x1="483.124" y1="122.6714" x2="483.124" y2="222.8125">
		<stop  offset="0" style="stop-color:#883C1D"/>
		<stop  offset="0.0726" style="stop-color:#BB7329"/>
		<stop  offset="0.1788" style="stop-color:#FEE645"/>
		<stop  offset="0.2346" style="stop-color:#B56F29"/>
		<stop  offset="0.2924" style="stop-color:#EBA22F"/>
		<stop  offset="0.3818" style="stop-color:#FEEB4E"/>
		<stop  offset="0.4469" style="stop-color:#DE9626"/>
		<stop  offset="0.527" style="stop-color:#E19F26"/>
		<stop  offset="0.5959" style="stop-color:#AC6F29"/>
		<stop  offset="0.7058" style="stop-color:#C58F2C"/>
		<stop  offset="0.8156" style="stop-color:#F5B92E"/>
		<stop  offset="0.9088" style="stop-color:#C18635"/>
		<stop  offset="1" style="stop-color:#883C1D"/>
	</linearGradient>
	<path style="fill:url(#SVGID_38_);" d="M491.647,208.482c0,4.282-0.437,7.998-1.31,11.142c-0.872,3.143-2.095,5.927-3.667,8.356
		c-1.571,2.431-3.429,4.599-5.572,6.5c-2.14,1.906-4.482,3.778-7.023,5.621l-0.858-1.192c2.192-1.999,3.929-4.079,5.219-6.238
		c1.285-2.158,2.265-4.467,2.949-6.926c0.684-2.464,1.12-5.112,1.31-7.955s0.286-5.941,0.286-9.308v-39.764
		c0-2.697-0.029-5.055-0.097-7.072c-0.063-2.018-0.156-3.764-0.282-5.238c-0.131-1.475-0.281-2.706-0.456-3.691
		c-0.174-0.984-0.354-1.809-0.548-2.479v-0.188h11.433v0.188c-0.194,0.67-0.373,1.494-0.548,2.479
		c-0.175,0.985-0.325,2.217-0.451,3.691c-0.131,1.475-0.224,3.221-0.286,5.238c-0.068,2.018-0.098,4.375-0.098,7.072V208.482z"/>
</g>
<g>
	<path style="fill:#F2F2F3;" d="M511.562,200.53c0,1.057,0.015,1.979,0.045,2.766c0.03,0.789,0.068,1.469,0.112,2.039
		c0.044,0.571,0.099,1.05,0.167,1.435s0.141,0.708,0.214,0.97v0.074h-4.47v-0.074c0.074-0.262,0.146-0.585,0.215-0.97
		s0.127-0.863,0.177-1.435c0.049-0.57,0.087-1.25,0.111-2.039c0.024-0.787,0.038-1.709,0.038-2.766v-12.125
		c0-1.055-0.014-1.978-0.038-2.767s-0.063-1.472-0.111-2.049c-0.05-0.576-0.108-1.059-0.177-1.443
		c-0.068-0.386-0.141-0.708-0.215-0.97v-0.074c1.03,0,2.074-0.002,3.129-0.009c1.057-0.006,2.081-0.012,3.073-0.02
		c0.994-0.006,1.938-0.017,2.833-0.036c0.894-0.019,1.699-0.038,2.42-0.057c0.72-0.017,1.328-0.042,1.825-0.074
		c0.497-0.03,0.851-0.064,1.063-0.103l-0.912,2.478c-0.41-0.111-0.888-0.21-1.435-0.298c-0.473-0.073-1.047-0.146-1.725-0.214
		c-0.675-0.068-1.455-0.103-2.337-0.103c-0.298,0-0.67,0.01-1.118,0.028c-0.445,0.018-0.888,0.04-1.322,0.064
		c-0.497,0.025-1.019,0.05-1.563,0.074v9.406c1.278-0.012,2.451-0.05,3.519-0.112c1.068-0.061,1.986-0.123,2.757-0.186
		c0.894-0.074,1.702-0.161,2.421-0.26l-0.558,2.699c-0.932-0.111-1.875-0.216-2.831-0.316c-0.819-0.086-1.701-0.163-2.646-0.231
		c-0.942-0.068-1.83-0.103-2.661-0.103V200.53z"/>
	<path style="fill:#F2F2F3;" d="M532.432,207.739c0.076-0.262,0.143-0.585,0.205-0.97s0.118-0.863,0.169-1.435
		c0.05-0.57,0.085-1.25,0.112-2.039c0.024-0.787,0.036-1.709,0.036-2.766v-12.125c0-1.055-0.012-1.978-0.036-2.767
		c-0.027-0.789-0.063-1.472-0.112-2.049c-0.051-0.576-0.106-1.059-0.169-1.443c-0.063-0.386-0.129-0.708-0.205-0.97v-0.074h4.453
		v0.074c-0.074,0.262-0.146,0.584-0.215,0.97c-0.068,0.385-0.125,0.867-0.167,1.443c-0.043,0.577-0.081,1.26-0.111,2.049
		c-0.032,0.789-0.048,1.712-0.048,2.767v12.125c0,1.057,0.016,1.979,0.048,2.766c0.03,0.789,0.068,1.469,0.111,2.039
		c0.042,0.571,0.099,1.05,0.167,1.435s0.141,0.708,0.215,0.97v0.074h-4.453V207.739z"/>
	<path style="fill:#F2F2F3;" d="M550.288,181.103l19.185,20.416v-13.113c0-1.055-0.012-1.978-0.038-2.767
		c-0.024-0.789-0.061-1.472-0.11-2.049c-0.051-0.576-0.11-1.059-0.178-1.443c-0.068-0.386-0.139-0.708-0.215-0.97v-0.074h3.316
		v0.074c-0.074,0.262-0.143,0.584-0.205,0.97c-0.063,0.385-0.117,0.867-0.167,1.443c-0.051,0.577-0.087,1.26-0.111,2.049
		c-0.025,0.789-0.038,1.712-0.038,2.767v19.779h-0.653L551.89,187.79v12.74c0,1.057,0.013,1.979,0.038,2.766
		c0.024,0.789,0.061,1.469,0.111,2.039c0.05,0.571,0.104,1.05,0.167,1.435s0.131,0.708,0.205,0.97v0.074h-3.316v-0.074
		c0.076-0.262,0.146-0.585,0.215-0.97s0.127-0.863,0.178-1.435c0.05-0.57,0.086-1.25,0.11-2.039
		c0.026-0.787,0.038-1.709,0.038-2.766v-12.125c0-1.055-0.012-1.978-0.038-2.767c-0.024-0.789-0.061-1.472-0.11-2.049
		c-0.051-0.576-0.109-1.059-0.178-1.443c-0.068-0.386-0.139-0.708-0.215-0.97v-0.074H550.288z"/>
	<path style="fill:#F2F2F3;" d="M602.77,207.813v-0.074c0.024-0.063,0.044-0.155,0.057-0.281c0.012-0.123,0.02-0.235,0.02-0.334
		c0-0.385-0.054-0.81-0.159-1.276c-0.106-0.465-0.308-1.045-0.605-1.741l-2.254-5.065c-0.696-0.025-1.62-0.038-2.775-0.038
		s-2.402,0-3.743,0c-0.981,0-1.928,0-2.84,0c-0.915,0-1.736,0.013-2.469,0.038l-2.142,4.917c-0.188,0.459-0.386,0.962-0.598,1.508
		c-0.211,0.547-0.315,1.099-0.315,1.658c0,0.161,0.012,0.294,0.036,0.4c0.025,0.106,0.05,0.177,0.074,0.215v0.074h-3.798v-0.074
		c0.222-0.237,0.503-0.654,0.836-1.258c0.336-0.602,0.702-1.356,1.101-2.264l10.672-23.673h1.491l10.113,22.761
		c0.235,0.535,0.48,1.053,0.736,1.556c0.255,0.503,0.493,0.952,0.718,1.351c0.222,0.396,0.421,0.732,0.596,1.006
		c0.172,0.272,0.292,0.445,0.353,0.521v0.074H602.77z M590.7,197.401c0.721,0,1.458-0.004,2.218-0.01
		c0.757-0.005,1.498-0.013,2.225-0.019s1.425-0.012,2.095-0.02c0.672-0.005,1.279-0.015,1.827-0.026l-5.234-11.828l-5.142,11.902
		H590.7z"/>
	<path style="fill:#F2F2F3;" d="M618.074,181.103l19.185,20.416v-13.113c0-1.055-0.012-1.978-0.038-2.767
		c-0.025-0.789-0.062-1.472-0.11-2.049c-0.051-0.576-0.11-1.059-0.179-1.443c-0.068-0.386-0.138-0.708-0.214-0.97v-0.074h3.316
		v0.074c-0.074,0.262-0.143,0.584-0.205,0.97c-0.063,0.385-0.118,0.867-0.167,1.443c-0.052,0.577-0.088,1.26-0.112,2.049
		s-0.038,1.712-0.038,2.767v19.779h-0.652l-19.185-20.395v12.74c0,1.057,0.014,1.979,0.038,2.766
		c0.025,0.789,0.062,1.469,0.112,2.039c0.049,0.571,0.104,1.05,0.167,1.435s0.131,0.708,0.205,0.97v0.074h-3.316v-0.074
		c0.076-0.262,0.146-0.585,0.214-0.97s0.128-0.863,0.179-1.435c0.05-0.57,0.085-1.25,0.11-2.039
		c0.026-0.787,0.038-1.709,0.038-2.766v-12.125c0-1.055-0.012-1.978-0.038-2.767c-0.025-0.789-0.061-1.472-0.11-2.049
		c-0.051-0.576-0.11-1.059-0.179-1.443c-0.068-0.386-0.138-0.708-0.214-0.97v-0.074H618.074z"/>
	<path style="fill:#F2F2F3;" d="M673.686,185.201l-0.169,0.073c-0.967-0.894-2.132-1.606-3.492-2.142
		c-1.358-0.533-2.852-0.801-4.479-0.801c-1.563,0-2.997,0.247-4.303,0.736c-1.304,0.491-2.425,1.201-3.361,2.133
		c-0.938,0.931-1.666,2.073-2.188,3.428c-0.522,1.353-0.784,2.894-0.784,4.618c0,1.9,0.249,3.673,0.746,5.317
		c0.497,1.646,1.234,3.071,2.216,4.276c0.98,1.204,2.208,2.151,3.679,2.84c1.472,0.688,3.189,1.034,5.15,1.034
		c0.708,0,1.416-0.076,2.123-0.224c0.708-0.15,1.389-0.37,2.04-0.662c0.652-0.291,1.267-0.646,1.844-1.061
		c0.578-0.416,1.103-0.892,1.574-1.425l0.205,0.129l-1.491,3.8c-0.93,0.36-1.958,0.638-3.081,0.829
		c-1.125,0.193-2.258,0.288-3.399,0.288c-2.298,0-4.399-0.332-6.307-0.996c-1.904-0.664-3.544-1.604-4.915-2.821
		c-1.374-1.218-2.442-2.679-3.204-4.386c-0.765-1.707-1.146-3.604-1.146-5.691c0-1.18,0.152-2.339,0.457-3.483
		c0.304-1.142,0.748-2.228,1.332-3.259c0.582-1.03,1.304-1.978,2.159-2.841c0.857-0.863,1.836-1.61,2.935-2.244
		s2.31-1.127,3.632-1.481c1.322-0.353,2.754-0.529,4.293-0.529c2.396,0,4.619,0.366,6.669,1.099L673.686,185.201z"/>
	<path style="fill:#F2F2F3;" d="M689.391,181.084c1.533-0.012,2.938-0.026,4.218-0.046c1.278-0.019,2.373-0.047,3.278-0.083
		c0.906-0.038,1.521-0.088,1.844-0.15l-0.913,2.478c-0.409-0.111-0.888-0.21-1.434-0.298c-0.473-0.073-1.046-0.146-1.723-0.214
		c-0.678-0.068-1.455-0.103-2.338-0.103c-0.298,0-0.654,0.01-1.071,0.028c-0.416,0.018-0.816,0.04-1.201,0.064
		c-0.446,0.025-0.899,0.05-1.358,0.074v10.171c1.278-0.014,2.433-0.05,3.464-0.112c1.03-0.063,1.905-0.123,2.626-0.186
		c0.845-0.076,1.59-0.161,2.235-0.262l-0.577,2.701c-0.857-0.111-1.732-0.218-2.628-0.316c-0.768-0.088-1.606-0.165-2.514-0.233
		c-0.906-0.068-1.775-0.103-2.606-0.103v11.679c1.465,0,2.812-0.063,4.041-0.186c1.229-0.124,2.303-0.268,3.222-0.429
		c1.067-0.175,2.043-0.38,2.925-0.615l-0.54,3.019c-0.148-0.014-0.372-0.026-0.67-0.038c-0.298-0.013-0.632-0.024-0.998-0.038
		c-0.366-0.011-0.751-0.021-1.153-0.026c-0.404-0.008-0.785-0.013-1.146-0.019c-0.36-0.008-0.679-0.014-0.96-0.02
		c-0.278-0.006-0.479-0.009-0.604-0.009h-8.046v-0.074c0.073-0.262,0.146-0.585,0.214-0.97s0.127-0.863,0.177-1.435
		c0.05-0.57,0.087-1.25,0.112-2.039c0.024-0.787,0.037-1.709,0.037-2.766v-12.125c0-1.055-0.013-1.978-0.037-2.767
		c-0.025-0.789-0.063-1.472-0.112-2.049c-0.05-0.576-0.108-1.059-0.177-1.443c-0.068-0.386-0.141-0.708-0.214-0.97v-0.074
		C686.313,181.103,687.855,181.098,689.391,181.084z"/>
</g>
<g>
	<path style="fill:#F2F2F3;" d="M519.197,225.107c0.358,0.499,0.62,1.052,0.783,1.66c0.164,0.608,0.223,1.342,0.176,2.199
		c-0.031,0.343-0.086,0.659-0.164,0.947c-0.078,0.289-0.172,0.558-0.28,0.808c-0.031,0.062-0.059,0.121-0.082,0.175
		c-0.023,0.056-0.051,0.113-0.082,0.175c-0.063,0.11-0.121,0.216-0.175,0.316c-0.056,0.102-0.121,0.199-0.199,0.292
		c-0.313,0.438-0.69,0.792-1.135,1.065c-0.444,0.272-0.947,0.503-1.509,0.69c-0.172,0.062-0.351,0.101-0.538,0.117
		c-0.187,0.015-0.374,0.046-0.562,0.093c-0.094,0.016-0.187,0.022-0.28,0.022s-0.188,0.009-0.281,0.024h-0.959h-1.965
		c-0.203,0-0.417,0-0.644,0c-0.226,0-0.401,0.046-0.525,0.14c-0.156,0.109-0.234,0.301-0.234,0.574c0,0.272,0,0.541,0,0.807v3.087
		c0,0.188,0.004,0.391,0.012,0.608c0.008,0.219-0.027,0.391-0.105,0.515c-0.063,0.11-0.203,0.195-0.421,0.258
		c-0.109,0.031-0.227,0.039-0.352,0.023c-0.124-0.016-0.249-0.023-0.374-0.023h-1.356c-0.172,0-0.331-0.003-0.479-0.012
		c-0.148-0.008-0.27-0.051-0.362-0.129c-0.094-0.078-0.148-0.198-0.164-0.362s-0.023-0.331-0.023-0.503v-13.989
		c0-0.218-0.004-0.475-0.012-0.771c-0.008-0.296,0.027-0.507,0.105-0.631c0.063-0.095,0.179-0.172,0.351-0.234
		c0.031-0.016,0.066-0.02,0.105-0.012s0.074,0.004,0.105-0.013h6.76c0.141,0,0.281-0.003,0.421-0.011
		c0.141-0.008,0.273,0.004,0.398,0.035h0.117c0.077,0.031,0.163,0.047,0.257,0.047s0.18,0.016,0.258,0.046
		c0.077,0.017,0.147,0.024,0.21,0.024s0.132,0.015,0.211,0.047c0.249,0.077,0.499,0.151,0.749,0.221
		c0.248,0.071,0.482,0.169,0.701,0.294c0.078,0.062,0.163,0.116,0.257,0.163s0.188,0.108,0.281,0.187
		c0.077,0.047,0.144,0.099,0.199,0.152c0.054,0.056,0.12,0.113,0.198,0.176l0.141,0.141
		C518.916,224.732,519.072,224.92,519.197,225.107z M516.624,228.943c0.031-0.171,0.043-0.386,0.035-0.644
		c-0.009-0.257-0.035-0.471-0.082-0.644c-0.094-0.343-0.211-0.615-0.351-0.818c-0.141-0.203-0.351-0.39-0.632-0.562
		c-0.234-0.14-0.522-0.245-0.865-0.315c-0.344-0.07-0.714-0.113-1.111-0.129s-0.807-0.02-1.229-0.012
		c-0.421,0.009-0.818,0.012-1.193,0.012c-0.046,0.016-0.09,0.027-0.128,0.035c-0.039,0.009-0.082,0.013-0.129,0.013
		c-0.156,0.062-0.257,0.155-0.304,0.279c-0.063,0.126-0.094,0.293-0.094,0.504c0,0.21,0,0.401,0,0.572v2.223c0,0.187,0,0.395,0,0.62
		c0,0.227,0.038,0.401,0.117,0.526c0.062,0.093,0.155,0.163,0.28,0.21s0.265,0.074,0.421,0.082c0.156,0.009,0.324,0.009,0.503,0
		c0.179-0.008,0.347-0.012,0.503-0.012c0.826,0,1.583-0.039,2.27-0.117c0.686-0.077,1.208-0.351,1.567-0.818
		c0.093-0.141,0.171-0.292,0.233-0.456C516.499,229.33,516.562,229.146,516.624,228.943z"/>
	<path style="fill:#F2F2F3;" d="M528.812,223.024h1.988c0.172,0,0.335,0.009,0.491,0.024c0.155,0.015,0.272,0.063,0.351,0.14
		c0.063,0.079,0.105,0.191,0.129,0.34s0.039,0.308,0.047,0.479s0.008,0.343,0,0.515s-0.012,0.327-0.012,0.468v4.701v3.977
		c0,0.359,0.004,0.729,0.012,1.112c0.008,0.382-0.027,0.729-0.105,1.04c-0.031,0.079-0.043,0.152-0.034,0.223
		c0.007,0.07-0.005,0.145-0.036,0.222c-0.046,0.142-0.086,0.285-0.117,0.434s-0.078,0.292-0.14,0.433
		c-0.344,0.858-0.835,1.513-1.474,1.965c-0.219,0.156-0.456,0.288-0.714,0.398c-0.257,0.109-0.526,0.21-0.807,0.304
		c-0.125,0.031-0.246,0.059-0.362,0.081c-0.117,0.024-0.238,0.051-0.363,0.082s-0.261,0.047-0.409,0.047s-0.293,0.016-0.433,0.048
		h-0.258c-0.094,0.03-0.222,0.042-0.386,0.035c-0.164-0.009-0.293-0.028-0.386-0.06c-0.172,0-0.297-0.008-0.375-0.023
		c-0.156-0.031-0.308-0.055-0.456-0.069c-0.148-0.017-0.284-0.039-0.409-0.07c-0.172-0.063-0.343-0.117-0.515-0.164
		s-0.336-0.108-0.491-0.188c-0.499-0.218-0.951-0.518-1.356-0.9c-0.406-0.382-0.718-0.822-0.937-1.321
		c-0.062-0.156-0.116-0.313-0.163-0.469c-0.047-0.154-0.094-0.318-0.141-0.49c-0.031-0.125-0.047-0.219-0.047-0.281
		c-0.031-0.078-0.043-0.147-0.035-0.21s-0.004-0.133-0.034-0.211c-0.016-0.031-0.024-0.074-0.024-0.128c0-0.056,0-0.099,0-0.13
		v-0.233c-0.016-0.078-0.023-0.16-0.023-0.245c0-0.086,0-0.168,0-0.246c0-0.219,0.008-0.425,0.023-0.62
		c0.016-0.194,0.086-0.331,0.211-0.409s0.292-0.117,0.503-0.117s0.41,0,0.597,0c0.141,0,0.304-0.003,0.491-0.012
		c0.188-0.008,0.37-0.008,0.55,0c0.18,0.009,0.343,0.027,0.491,0.06c0.147,0.031,0.245,0.085,0.292,0.163
		c0.109,0.156,0.152,0.359,0.129,0.608s-0.012,0.483,0.035,0.701c0.031,0.094,0.051,0.184,0.059,0.269
		c0.008,0.087,0.027,0.176,0.059,0.27c0.062,0.219,0.141,0.418,0.233,0.597c0.094,0.179,0.227,0.331,0.398,0.456
		c0.187,0.14,0.444,0.257,0.771,0.352c0.328,0.093,0.663,0.101,1.006,0.022c0.078-0.03,0.148-0.047,0.211-0.047
		c0.062,0,0.125-0.015,0.187-0.046c0.468-0.188,0.78-0.507,0.937-0.96c0.062-0.14,0.101-0.283,0.116-0.432s0.039-0.309,0.07-0.48
		c0-0.094,0-0.184,0-0.269c0-0.086,0.008-0.176,0.023-0.269c0.016-0.078,0.02-0.168,0.012-0.27s-0.012-0.199-0.012-0.293v-1.123
		v-6.269v-2.246c0-0.172-0.004-0.351-0.012-0.538c-0.008-0.187,0.027-0.343,0.105-0.467c0.062-0.095,0.179-0.172,0.351-0.234
		C528.718,223.049,528.78,223.041,528.812,223.024z"/>
	<path style="fill:#F2F2F3;" d="M540.086,222.675c3.025-0.047,5.107,0.85,6.246,2.689c0.156,0.249,0.276,0.508,0.363,0.772
		c0.085,0.266,0.167,0.554,0.245,0.865c0.031,0.125,0.043,0.27,0.035,0.433c-0.008,0.164-0.043,0.285-0.105,0.363
		c-0.078,0.093-0.188,0.151-0.327,0.175c-0.141,0.023-0.297,0.035-0.468,0.035h-1.474c-0.141,0-0.281,0-0.421,0
		c-0.141,0-0.258-0.016-0.352-0.047c-0.188-0.078-0.304-0.202-0.351-0.374c-0.047-0.171-0.109-0.344-0.188-0.515
		c-0.063-0.156-0.148-0.32-0.258-0.491c-0.108-0.171-0.226-0.305-0.351-0.398c-0.218-0.155-0.429-0.288-0.631-0.397
		c-0.188-0.078-0.418-0.144-0.69-0.199c-0.273-0.054-0.554-0.089-0.842-0.104c-0.289-0.016-0.573-0.008-0.854,0.022
		c-0.28,0.032-0.53,0.095-0.748,0.188c-0.359,0.156-0.636,0.34-0.83,0.551c-0.195,0.21-0.332,0.525-0.41,0.947
		c-0.031,0.109-0.039,0.23-0.023,0.362s0.039,0.238,0.07,0.316c0.125,0.327,0.3,0.558,0.526,0.689
		c0.226,0.133,0.495,0.261,0.808,0.386c0.171,0.078,0.347,0.137,0.525,0.175c0.18,0.039,0.363,0.091,0.551,0.152
		c0.42,0.142,0.854,0.262,1.298,0.363s0.885,0.214,1.321,0.339c0.078,0.031,0.156,0.047,0.234,0.047s0.155,0.016,0.233,0.047
		c0.313,0.109,0.636,0.211,0.971,0.304c0.336,0.094,0.636,0.227,0.901,0.397c0.421,0.266,0.783,0.53,1.087,0.796
		c0.305,0.265,0.589,0.608,0.854,1.029c0.078,0.125,0.144,0.266,0.198,0.421c0.055,0.156,0.113,0.313,0.176,0.468
		c0.016,0.047,0.023,0.09,0.023,0.129s0.008,0.074,0.023,0.105c0.063,0.25,0.094,0.561,0.094,0.936c0.031,0.078,0.031,0.156,0,0.233
		v0.422c-0.031,0.171-0.059,0.335-0.082,0.491s-0.059,0.312-0.105,0.467c-0.094,0.281-0.195,0.539-0.304,0.772
		c-0.109,0.234-0.242,0.461-0.397,0.679c-0.063,0.078-0.126,0.145-0.188,0.198c-0.063,0.056-0.117,0.121-0.163,0.199
		c-0.079,0.094-0.164,0.184-0.258,0.269c-0.094,0.087-0.195,0.169-0.305,0.247c-0.078,0.062-0.159,0.124-0.245,0.187
		s-0.176,0.124-0.269,0.188c-0.266,0.171-0.542,0.312-0.831,0.42c-0.289,0.11-0.589,0.22-0.9,0.328
		c-0.219,0.078-0.444,0.128-0.679,0.152c-0.234,0.022-0.468,0.058-0.702,0.104c-0.108,0.031-0.214,0.043-0.315,0.035
		s-0.199,0.004-0.293,0.035h-0.187c-0.031,0-0.074-0.004-0.129-0.012c-0.055-0.009-0.098-0.004-0.128,0.012
		c-0.079,0.016-0.211,0.023-0.398,0.023c-0.187,0-0.319-0.008-0.397-0.023h-0.233c-0.109-0.031-0.223-0.043-0.34-0.035
		s-0.223-0.004-0.315-0.035c-0.078,0-0.148-0.004-0.211-0.012s-0.133-0.02-0.21-0.035c-0.188-0.047-0.383-0.086-0.585-0.117
		c-0.203-0.031-0.39-0.078-0.562-0.14c-0.764-0.249-1.436-0.565-2.012-0.947c-0.577-0.383-1.061-0.885-1.45-1.509
		c-0.25-0.375-0.444-0.819-0.585-1.333c-0.031-0.095-0.051-0.188-0.059-0.281s-0.027-0.195-0.059-0.305
		c-0.031-0.124-0.055-0.275-0.07-0.456c-0.016-0.179,0.016-0.315,0.094-0.409c0.078-0.124,0.19-0.198,0.339-0.222
		s0.316-0.035,0.503-0.035h1.475c0.124,0,0.257,0,0.397,0c0.14,0,0.265,0.023,0.374,0.069c0.172,0.079,0.272,0.208,0.305,0.387
		c0.03,0.179,0.085,0.362,0.163,0.55c0.062,0.187,0.141,0.358,0.234,0.515s0.194,0.305,0.304,0.444
		c0.078,0.093,0.164,0.18,0.258,0.257c0.093,0.079,0.187,0.148,0.28,0.211c0.343,0.219,0.764,0.397,1.263,0.538
		c0.109,0.031,0.215,0.047,0.316,0.047s0.214,0.015,0.339,0.047h0.117c0.125,0.031,0.296,0.046,0.515,0.046s0.39-0.015,0.515-0.046
		c0.047-0.016,0.124-0.023,0.233-0.023c0.078-0.016,0.16-0.027,0.246-0.035s0.167-0.027,0.245-0.059
		c0.53-0.141,0.952-0.328,1.264-0.562s0.53-0.624,0.655-1.169c0.031-0.109,0.035-0.234,0.012-0.375s-0.051-0.25-0.082-0.328
		c-0.156-0.42-0.421-0.748-0.796-0.982c-0.046-0.031-0.133-0.077-0.257-0.14c-0.234-0.141-0.495-0.253-0.783-0.34
		c-0.289-0.085-0.573-0.175-0.854-0.269c-0.109-0.031-0.215-0.059-0.315-0.081c-0.102-0.024-0.215-0.051-0.339-0.082
		c-0.25-0.078-0.503-0.145-0.761-0.199c-0.258-0.054-0.503-0.121-0.737-0.199c-0.078-0.031-0.14-0.046-0.187-0.046
		s-0.102-0.016-0.164-0.047c-0.125-0.031-0.237-0.063-0.339-0.095c-0.102-0.03-0.215-0.062-0.34-0.093
		c-0.358-0.125-0.701-0.253-1.029-0.387c-0.327-0.132-0.632-0.283-0.911-0.456c-0.359-0.234-0.688-0.506-0.983-0.818
		c-0.296-0.312-0.53-0.67-0.701-1.075c-0.063-0.142-0.109-0.285-0.141-0.434s-0.07-0.308-0.117-0.479
		c-0.031-0.14-0.055-0.343-0.07-0.608c-0.016-0.265-0.008-0.483,0.023-0.655c0.016-0.062,0.023-0.155,0.023-0.28
		c0.047-0.172,0.085-0.335,0.117-0.491c0.031-0.156,0.078-0.313,0.14-0.469c0.234-0.545,0.534-1.009,0.901-1.392
		c0.366-0.381,0.791-0.729,1.274-1.04c0.313-0.188,0.647-0.336,1.006-0.444c0.359-0.109,0.741-0.211,1.146-0.305
		c0.156-0.031,0.308-0.051,0.456-0.058c0.148-0.008,0.301-0.028,0.456-0.06c0.047-0.015,0.121-0.015,0.223,0
		C539.989,222.714,540.055,222.706,540.086,222.675z"/>
	<path style="fill:#F2F2F3;" d="M556.461,222.628c1.638-0.031,2.986,0.249,4.047,0.842s1.902,1.38,2.526,2.362
		c0.172,0.266,0.312,0.535,0.421,0.807c0.109,0.273,0.211,0.573,0.305,0.9c0.031,0.109,0.062,0.234,0.093,0.375
		s0.023,0.273-0.022,0.397c-0.032,0.094-0.091,0.152-0.176,0.176c-0.086,0.023-0.184,0.051-0.292,0.082h-0.188
		c-0.094,0.031-0.199,0.043-0.316,0.035c-0.116-0.008-0.229-0.013-0.339-0.013c-0.141,0-0.308,0.005-0.503,0.013
		s-0.386,0.008-0.573,0c-0.187-0.008-0.358-0.023-0.515-0.047s-0.273-0.059-0.351-0.105c-0.125-0.108-0.219-0.257-0.28-0.444
		c-0.063-0.188-0.141-0.352-0.234-0.491c-0.296-0.515-0.687-0.921-1.17-1.217c-0.327-0.202-0.694-0.366-1.099-0.491
		c-0.266-0.093-0.598-0.141-0.995-0.141s-0.744,0.039-1.041,0.117c-0.124,0.031-0.238,0.059-0.339,0.082
		c-0.102,0.023-0.207,0.059-0.315,0.105c-1.062,0.452-1.81,1.201-2.246,2.245c-0.078,0.188-0.148,0.383-0.211,0.586
		c-0.063,0.202-0.133,0.413-0.21,0.631c-0.016,0.109-0.031,0.21-0.047,0.305c-0.016,0.093-0.031,0.195-0.047,0.304
		c-0.031,0.093-0.043,0.191-0.035,0.292c0.008,0.102-0.004,0.208-0.035,0.316c-0.031,0.124-0.043,0.254-0.035,0.386
		c0.008,0.133,0.012,0.261,0.012,0.386c0,0.063-0.004,0.125-0.012,0.188s-0.004,0.125,0.012,0.187v0.211
		c0.031,0.078,0.043,0.155,0.035,0.233s0.004,0.156,0.035,0.234c0,0.094,0.016,0.219,0.047,0.374
		c0.031,0.173,0.063,0.332,0.094,0.479c0.031,0.148,0.069,0.293,0.117,0.434c0.218,0.655,0.499,1.213,0.842,1.673
		c0.343,0.459,0.795,0.838,1.356,1.134c0.172,0.078,0.352,0.145,0.539,0.199c0.187,0.055,0.389,0.113,0.607,0.175
		c0.078,0.017,0.152,0.028,0.222,0.035c0.071,0.008,0.145,0.012,0.223,0.012h0.188c0.077,0.031,0.179,0.043,0.304,0.035
		s0.227-0.019,0.305-0.035c0.093,0,0.164-0.008,0.21-0.022c0.188-0.031,0.363-0.063,0.526-0.095c0.164-0.03,0.324-0.086,0.479-0.163
		c0.358-0.155,0.667-0.363,0.924-0.62c0.258-0.257,0.487-0.55,0.69-0.877c0.094-0.155,0.172-0.328,0.233-0.515
		c0.063-0.188,0.133-0.374,0.211-0.562c0.047-0.171,0.094-0.327,0.141-0.469c0.047-0.14,0.148-0.248,0.304-0.327
		c0.094-0.03,0.211-0.047,0.352-0.047c0.14,0,0.272,0,0.397,0h1.427c0.141,0,0.284,0,0.433,0s0.27,0.032,0.362,0.094
		c0.109,0.079,0.168,0.203,0.176,0.375c0.008,0.171-0.012,0.335-0.059,0.491l-0.14,0.631c-0.078,0.234-0.152,0.461-0.223,0.679
		c-0.07,0.219-0.16,0.43-0.269,0.632c-0.079,0.125-0.141,0.246-0.188,0.363c-0.047,0.115-0.109,0.229-0.188,0.339
		c-0.857,1.341-2.104,2.276-3.742,2.807c-0.172,0.062-0.344,0.108-0.515,0.14c-0.172,0.031-0.344,0.063-0.516,0.095
		c-0.077,0.03-0.151,0.043-0.222,0.035c-0.07-0.009-0.145,0.003-0.223,0.034c-0.108,0-0.214,0.004-0.315,0.013
		c-0.102,0.007-0.207,0.019-0.315,0.035h-0.374c-0.141,0-0.281,0-0.422,0c-0.14,0-0.272-0.017-0.397-0.048
		c-0.047-0.016-0.125-0.023-0.234-0.023c-0.109-0.016-0.218-0.031-0.327-0.046c-0.109-0.017-0.227-0.031-0.351-0.047
		c-0.156-0.048-0.309-0.087-0.456-0.117c-0.148-0.031-0.301-0.07-0.456-0.117c-0.141-0.046-0.281-0.097-0.421-0.152
		c-0.141-0.054-0.273-0.113-0.398-0.175c-0.936-0.405-1.727-0.948-2.374-1.626c-0.647-0.679-1.174-1.485-1.579-2.422
		c-0.094-0.233-0.172-0.467-0.233-0.701c-0.063-0.234-0.133-0.476-0.211-0.726c-0.031-0.077-0.047-0.144-0.047-0.198
		s-0.008-0.113-0.023-0.176c-0.031-0.141-0.055-0.288-0.07-0.444s-0.039-0.305-0.07-0.444c-0.031-0.078-0.043-0.144-0.034-0.199
		c0.007-0.054,0.003-0.113-0.013-0.175v-0.444c-0.031-0.078-0.046-0.195-0.046-0.352c0-0.155,0.015-0.272,0.046-0.352
		c0.016-0.046,0.02-0.097,0.013-0.151c-0.009-0.055-0.013-0.097-0.013-0.128v-0.212c0.031-0.124,0.051-0.257,0.059-0.396
		c0.008-0.141,0.02-0.28,0.035-0.422c0.031-0.124,0.055-0.245,0.07-0.362s0.039-0.237,0.07-0.362
		c0.062-0.219,0.117-0.433,0.164-0.643c0.047-0.212,0.108-0.41,0.187-0.597c0.078-0.203,0.16-0.406,0.246-0.608
		c0.085-0.203,0.183-0.391,0.292-0.562c0.249-0.437,0.507-0.826,0.771-1.17c0.078-0.108,0.164-0.211,0.258-0.304
		c0.094-0.095,0.188-0.188,0.281-0.281c0.39-0.39,0.799-0.721,1.228-0.994c0.429-0.272,0.916-0.519,1.462-0.737
		c0.188-0.078,0.383-0.144,0.585-0.198c0.203-0.055,0.413-0.105,0.632-0.151c0.094-0.032,0.187-0.048,0.28-0.048
		s0.18-0.016,0.258-0.047c0.125-0.015,0.245-0.026,0.362-0.035c0.117-0.008,0.238-0.019,0.362-0.034c0.031-0.017,0.07-0.017,0.117,0
		C556.391,222.644,556.43,222.644,556.461,222.628z"/>
</g>
<path style="fill:#F2F2F3;" d="M563.88,153.752c0,1.732-0.895,2.6-2.683,2.6h-7.367c0,1.461-0.495,2.723-1.485,3.785
	c-1.015,1.086-2.248,1.629-3.701,1.629c-1.462,0-2.712-0.503-3.75-1.51c-1.038-1.006-1.557-2.235-1.557-3.689v-7.905h2.635v7.834
	c0,0.727,0.254,1.344,0.761,1.851s1.124,0.761,1.851,0.761s1.346-0.254,1.857-0.761c0.511-0.507,0.767-1.124,0.767-1.851v-7.834
	h2.623v5.114h2.372v-5.114h2.635v5.114h0.755c0.639,0,1.03-0.031,1.174-0.096c0.319-0.144,0.479-0.503,0.479-1.078v-3.94h2.635
	V153.752z M557.556,146.301c0,0.359-0.13,0.669-0.39,0.929c-0.26,0.259-0.569,0.389-0.929,0.389c-0.358,0-0.666-0.13-0.922-0.389
	c-0.256-0.26-0.384-0.569-0.384-0.929s0.128-0.669,0.384-0.928c0.256-0.26,0.563-0.39,0.922-0.39c0.359,0,0.669,0.13,0.929,0.39
	C557.426,145.632,557.556,145.941,557.556,146.301z M559.064,143.929c0,0.368-0.128,0.679-0.383,0.935
	c-0.256,0.256-0.567,0.384-0.935,0.384c-0.359,0-0.667-0.13-0.922-0.39c-0.256-0.26-0.384-0.569-0.384-0.929
	s0.128-0.666,0.384-0.922c0.255-0.256,0.563-0.384,0.922-0.384c0.367,0,0.679,0.126,0.935,0.378
	C558.937,143.252,559.064,143.562,559.064,143.929z M560.538,146.301c0,0.359-0.128,0.669-0.383,0.929
	c-0.256,0.259-0.563,0.389-0.923,0.389s-0.667-0.13-0.922-0.389c-0.256-0.26-0.384-0.569-0.384-0.929s0.128-0.669,0.384-0.928
	c0.255-0.26,0.563-0.39,0.922-0.39s0.667,0.13,0.923,0.39C560.41,145.632,560.538,145.941,560.538,146.301z"/>
<path style="fill:#F2F2F3;" d="M536.656,154.423c0,1.285-0.698,1.929-2.096,1.929h-5.223c-0.887,0-1.33,0.423-1.33,1.27v6.517
	h-2.636v-7.799c0-1.709,0.871-2.563,2.611-2.563h0.611v-5.139h5.966c1.397,0,2.096,0.646,2.096,1.94V154.423z M533.961,153.141
	v-1.306c0-0.415-0.228-0.623-0.683-0.623h-1.977v2.563h1.977C533.733,153.775,533.961,153.564,533.961,153.141z"/>
<path style="fill:#F2F2F3;" d="M509.094,154.326v-3.749c0-1.294,0.698-1.94,2.096-1.94h6.121v2.563h-4.42
	c-0.767,0-1.15,0.388-1.15,1.162v1.413h5.547v2.576h-5.702c-0.727,0-1.346,0.253-1.856,0.76c-0.512,0.508-0.767,1.124-0.767,1.852
	c0,0.734,0.253,1.355,0.761,1.862c0.507,0.507,1.128,0.761,1.862,0.761h5.689v2.6h-5.797c-1.454,0-2.684-0.516-3.689-1.546
	c-1.007-1.03-1.51-2.275-1.51-3.737c0-0.966,0.254-1.862,0.761-2.689C507.546,155.387,508.231,154.758,509.094,154.326z"/>
</svg>
